<svg width="62" height="81" viewBox="0 0 62 81" fill="none" xmlns="http://www.w3.org/2000/svg">
<path d="M0.873779 12.4445L21.9511 -7.79911e-05L62.0001 67.8305L40.9228 80.2751L0.873779 12.4445Z" fill="#3682D2"/>
<rect x="6.35889" y="13.7875" width="16.9113" height="36.4929" transform="rotate(-30.56 6.35889 13.7875)" fill="white"/>
<path d="M11.0327 14.055L21.7136 7.37952" stroke="#344564" stroke-width="2"/>
<path d="M50.5861 63.454C50.5861 66.3731 48.2197 68.7395 45.3006 68.7395C42.3815 68.7395 40.0151 66.3731 40.0151 63.454C40.0151 60.535 42.3815 58.1686 45.3006 58.1686C48.2197 58.1686 50.5861 60.535 50.5861 63.454Z" fill="#2D5AAF" stroke="#DFF1FA"/>
<path d="M45.5 67C44.5463 67 43.6818 66.6186 43.0505 66C42.4022 65.3647 42 64.4793 42 63.5C42 62.5207 42.4022 61.6353 43.0505 61C43.6818 60.3814 44.5463 60 45.5 60C46.2436 60 46.9331 60.2319 47.5 60.6273L46 62.0854C45.7851 62.0085 45.6794 61.9992 45.5 62C44.6716 62 44 62.6716 44 63.5C44 64.3284 44.6716 65 45.5 65C46.3284 65 47 64.3284 47 63.5C46.9944 63.2624 46.9735 63.1726 46.9289 63.0425L48.6632 62C48.8792 62.4546 49 62.9632 49 63.5C49 64.4793 48.5978 65.3647 47.9495 66C47.3182 66.6186 46.4537 67 45.5 67Z" fill="#DFF1FA"/>
</svg>
