<svg width="369" height="398" viewBox="0 0 369 398" fill="none" xmlns="http://www.w3.org/2000/svg">
<g filter="url(#filter0_d_10_82)">
<path d="M4 178.985H327.802V191.791H309.508V372.901H299.752V191.791H235.113V358.876H222.917V191.791H96.0794V372.901H85.103V191.791H24.1233V358.876H13.147V191.791H4V178.985Z" fill="#1F557B"/>
</g>
<path d="M154.01 66.1729H271.701L280.848 146.056H163.157L154.01 66.1729Z" fill="white"/>
<g filter="url(#filter1_f_10_82)">
<path d="M163.157 146.666L154.01 66.1729H163.157L172.914 144.208H271.701L261.335 66.1729H271.701L280.848 146.666H163.157Z" fill="#E1E1E1"/>
</g>
<g filter="url(#filter2_f_10_82)">
<path d="M177.792 82.0276H252.187M179.012 91.1746H253.407" stroke="#1F557B" stroke-width="3"/>
</g>
<g filter="url(#filter3_f_10_82)">
<path d="M189.989 101.541H246.09" stroke="#344564" stroke-width="5"/>
</g>
<g filter="url(#filter4_f_10_82)">
<path d="M184.5 110.688H251.577M188.159 124.104H255.236" stroke="#6EBEF8" stroke-width="4"/>
</g>
<g filter="url(#filter5_f_10_82)">
<path d="M186.939 117.396H253.407" stroke="#3682D2" stroke-width="2"/>
</g>
<g filter="url(#filter6_d_10_82)">
<path fill-rule="evenodd" clip-rule="evenodd" d="M147.912 59.4651H277.141L288.166 160.691H231.819V174.717H241.006V178.376H203.646V174.717H212.221V160.691H158.324L147.912 59.4651ZM272.854 66.1729H153.424L162.611 147.276H282.041L272.854 66.1729Z" fill="#326EC1"/>
</g>
<g filter="url(#filter7_d_10_82)">
<path d="M229.891 356.997C229.34 356.649 228.653 356.582 228.05 356.829C217.203 361.264 211.575 364.361 204.125 370.474C203.667 370.851 203.403 371.415 203.403 372.008V373.95C203.403 375.054 204.299 375.95 205.403 375.95H258.316C259.339 375.95 260.204 375.179 260.283 374.159C260.438 372.146 260.411 370.591 260.147 368.295C260.126 368.114 260.08 367.937 260.008 367.769C259.145 365.746 258.261 364.486 256.578 362.69C256.126 362.207 255.455 361.996 254.801 362.102C244.032 363.859 238.367 362.351 229.891 356.997Z" fill="#DFF1FA"/>
</g>
<g filter="url(#filter8_d_10_82)">
<path d="M175.01 356.997C174.458 356.649 173.771 356.582 173.168 356.829C162.321 361.264 156.693 364.361 149.244 370.474C148.785 370.851 148.522 371.415 148.522 372.008V373.95C148.522 375.054 149.417 375.95 150.522 375.95H203.435C204.457 375.95 205.322 375.179 205.401 374.159C205.556 372.146 205.529 370.591 205.265 368.295C205.244 368.114 205.198 367.937 205.127 367.769C204.263 365.746 203.38 364.486 201.697 362.69C201.244 362.207 200.573 361.996 199.92 362.102C189.151 363.859 183.485 362.351 175.01 356.997Z" fill="#DFF1FA"/>
</g>
<g filter="url(#filter9_d_10_82)">
<path d="M186.525 227.389C186.027 226.87 185.287 226.656 184.594 226.847C172.061 230.293 164.306 237.109 161.937 243.624C159.498 250.332 168.645 347.289 171.084 354.607C173.523 361.925 199.195 363.15 204.013 361.925C208.832 360.699 193.037 262.528 195.476 259.479C197.06 257.499 204.815 257.062 210.058 256.999C211.855 256.977 212.816 254.776 211.572 253.479L186.525 227.389Z" fill="#326EC1"/>
<path d="M225.527 257.039C224.422 257.039 223.527 257.9 223.529 259.005C223.55 272.23 223.794 347.931 226.576 354.607C229.625 361.925 253.407 365.583 259.505 361.925C265.125 358.552 258.314 272.306 257.212 258.809C257.127 257.773 256.267 257.039 255.227 257.039H240.601H225.527Z" fill="#326EC1"/>
</g>
<g filter="url(#filter10_d_10_82)">
<path d="M168.251 160.691H177.179C178.258 160.691 179.142 161.547 179.178 162.625L179.518 172.82C179.566 174.277 178.086 175.269 176.654 174.994C173.504 174.391 171.638 175.609 170.534 178.479C170.024 179.802 168.851 180.815 167.433 180.815H159.786C159.594 180.815 159.403 180.802 159.213 180.772C157.546 180.506 156.504 180.091 155.223 178.55C154.808 178.05 154.308 177.627 153.748 177.297C151.815 176.156 150.905 174.762 150.351 171.058C149.559 166.745 149.99 164.832 151.612 162.637C151.96 162.167 152.521 161.905 153.106 161.894C156.285 161.836 158.265 161.806 159.365 161.8C160.521 161.793 159.498 160.932 159.498 159.776V156.593C159.498 155.489 160.394 154.593 161.498 154.593H163.043C163.851 154.593 164.579 155.079 164.89 155.824L166.405 159.461C166.715 160.206 167.443 160.691 168.251 160.691Z" fill="#985B00"/>
<path d="M271.701 67.1982V78.1982C271.701 79.3028 272.596 80.1982 273.701 80.1982H289.215C290.319 80.1982 291.215 79.3028 291.215 78.1982V31.5851C291.215 30.4805 290.319 29.5851 289.215 29.5851H259.151C258.274 29.5851 257.495 30.1571 257.256 31.0008C255.07 38.7123 255.506 43.448 257.676 51.5377C261.075 59.7707 263.718 63.4697 270.107 65.1897C271.026 65.437 271.701 66.2469 271.701 67.1982Z" fill="#985B00"/>
</g>
<g filter="url(#filter11_d_10_82)">
<path d="M240.819 130.27C241.064 127.941 243.83 127.931 243.956 130.271C245.238 154.116 242.502 183.165 238.849 209.531C238.801 209.876 238.571 210.172 238.251 210.311C217.718 219.185 205.719 222.302 185.765 225.001C184.494 225.173 183.7 226.479 184.153 227.679C189.046 240.642 193.065 247.357 203.538 253.706C203.846 253.892 204.203 253.99 204.563 253.99H308.058C308.21 253.99 308.362 253.955 308.498 253.888C316.547 249.952 320.136 246.823 322.284 237.653C322.304 237.57 322.313 237.483 322.31 237.397L320.363 169.229L319.805 149.715V132.641C323.521 136.564 324.978 139.884 325.328 148.684C325.35 149.247 324.897 149.715 324.334 149.715H320.065L320.363 169.229H338.081C338.139 169.229 338.199 169.223 338.256 169.213C343.622 168.246 345.547 166.323 346.679 160.227C346.697 160.132 346.7 160.031 346.69 159.935C343.121 127.392 337.466 111.263 322.826 86.5483C322.507 86.0095 321.947 85.6457 321.324 85.5762C313.824 84.7381 308.538 84.099 298.185 82.7513C297.687 82.6864 297.312 82.2617 297.312 81.7594V80.9787C297.312 79.8741 296.417 78.9787 295.312 78.9787H270.042C268.937 78.9787 268.042 79.8741 268.042 80.9787V81.7919C268.042 82.2801 267.684 82.6977 267.203 82.7798C252.248 85.3325 244.73 87.5202 233.549 92.0389C232.996 92.2625 232.568 92.7305 232.391 93.3002C225.254 116.203 221.696 130.399 218.691 154.594C218.506 156.088 218.322 157.62 218.14 159.195C218.082 159.7 217.655 160.082 217.146 160.082H213.16H180.086C179.113 160.082 178.281 160.783 178.116 161.742L175.756 175.426C175.545 176.648 176.487 177.766 177.727 177.766H221.088C229.239 177.205 232.289 175.445 234.503 169.229L238.772 149.715L240.819 130.27Z" fill="#3FA9F5"/>
</g>
<g filter="url(#filter12_d_10_82)">
<path d="M254.626 14.3403C256.5 2.4348 295.889 -12.2367 306.459 17.3892C316.115 44.4519 292.244 61.5098 286.749 62.1651C286.061 62.2472 285.301 61.9089 284.609 61.8877C278.1 61.6882 274.52 59.6379 270.15 51.9396C269.635 51.0326 269.948 49.8934 270.8 49.2925C274.634 46.5901 276.02 44.2354 275.441 39.3484C275.393 38.9471 275.213 38.5699 274.932 38.2794C272.219 35.4736 270.398 34.969 267.941 37.012C266.971 37.8188 265.501 37.7895 264.684 36.8277C260.945 32.4245 257.664 30.3859 255.931 29.5272C255.169 29.1493 254.575 28.4061 254.343 27.5869C253.891 25.9843 253.2 23.4048 254.626 14.3403Z" fill="#1F1341"/>
</g>
<g filter="url(#filter13_d_10_82)">
<path fill-rule="evenodd" clip-rule="evenodd" d="M201.574 253.161C201.574 252.609 202.022 252.161 202.574 252.161H257.443C257.93 252.161 258.346 251.81 258.428 251.331L277.656 139.569C277.739 139.089 278.155 138.739 278.641 138.739H281.518C282.129 138.739 282.597 139.281 282.507 139.885L280.408 154.057C280.318 154.661 280.786 155.203 281.397 155.203H355.661C356.129 155.203 356.535 154.878 356.637 154.42L359.947 139.522C360.049 139.064 360.455 138.739 360.924 138.739H363.827C364.442 138.739 364.911 139.289 364.814 139.897L346.724 252.661C346.712 252.734 346.708 252.808 346.713 252.882L355.177 388.303C355.213 388.879 354.755 389.365 354.179 389.365H350.085C349.557 389.365 349.12 388.954 349.087 388.427L341.276 262.246C341.243 261.719 340.806 261.308 340.278 261.308H299.997C299.504 261.308 299.085 261.666 299.009 262.153L280.371 380.593C280.294 381.08 279.875 381.438 279.383 381.438H275.31C274.695 381.438 274.226 380.889 274.322 380.283L292.862 262.463C292.957 261.857 292.488 261.308 291.874 261.308H265.432C264.861 261.308 264.406 261.785 264.433 262.356L270.431 388.318C270.459 388.888 270.003 389.365 269.433 389.365H265.337C264.803 389.365 264.363 388.946 264.338 388.413L258.331 262.26C258.305 261.727 257.866 261.308 257.332 261.308H210.352C209.862 261.308 209.444 261.664 209.365 262.148L190.124 380.598C190.046 381.082 189.628 381.438 189.137 381.438H184.462C183.843 381.438 183.373 380.883 183.475 380.273L203.24 262.285C203.326 261.774 202.931 261.308 202.413 261.308V261.308C201.95 261.308 201.574 260.933 201.574 260.469V253.161ZM270.096 219.232C269.613 219.232 269.199 219.578 269.112 220.053L263.378 251.592C263.266 252.206 263.738 252.771 264.362 252.771H340.368C340.858 252.771 341.276 252.416 341.355 251.932L346.516 220.393C346.615 219.785 346.146 219.232 345.529 219.232H270.096Z" fill="#344564"/>
</g>
<defs>
<filter id="filter0_d_10_82" x="0" y="178.985" width="331.802" height="201.915" filterUnits="userSpaceOnUse" color-interpolation-filters="sRGB">
<feFlood flood-opacity="0" result="BackgroundImageFix"/>
<feColorMatrix in="SourceAlpha" type="matrix" values="0 0 0 0 0 0 0 0 0 0 0 0 0 0 0 0 0 0 127 0" result="hardAlpha"/>
<feOffset dy="4"/>
<feGaussianBlur stdDeviation="2"/>
<feComposite in2="hardAlpha" operator="out"/>
<feColorMatrix type="matrix" values="0 0 0 0 0 0 0 0 0 0 0 0 0 0 0 0 0 0 0.25 0"/>
<feBlend mode="normal" in2="BackgroundImageFix" result="effect1_dropShadow_10_82"/>
<feBlend mode="normal" in="SourceGraphic" in2="effect1_dropShadow_10_82" result="shape"/>
</filter>
<filter id="filter1_f_10_82" x="150.01" y="62.1729" width="134.838" height="88.4932" filterUnits="userSpaceOnUse" color-interpolation-filters="sRGB">
<feFlood flood-opacity="0" result="BackgroundImageFix"/>
<feBlend mode="normal" in="SourceGraphic" in2="BackgroundImageFix" result="shape"/>
<feGaussianBlur stdDeviation="2" result="effect1_foregroundBlur_10_82"/>
</filter>
<filter id="filter2_f_10_82" x="173.792" y="76.5276" width="83.6147" height="20.147" filterUnits="userSpaceOnUse" color-interpolation-filters="sRGB">
<feFlood flood-opacity="0" result="BackgroundImageFix"/>
<feBlend mode="normal" in="SourceGraphic" in2="BackgroundImageFix" result="shape"/>
<feGaussianBlur stdDeviation="2" result="effect1_foregroundBlur_10_82"/>
</filter>
<filter id="filter3_f_10_82" x="185.989" y="95.0411" width="64.1013" height="13" filterUnits="userSpaceOnUse" color-interpolation-filters="sRGB">
<feFlood flood-opacity="0" result="BackgroundImageFix"/>
<feBlend mode="normal" in="SourceGraphic" in2="BackgroundImageFix" result="shape"/>
<feGaussianBlur stdDeviation="2" result="effect1_foregroundBlur_10_82"/>
</filter>
<filter id="filter4_f_10_82" x="180.5" y="104.688" width="78.7366" height="25.4155" filterUnits="userSpaceOnUse" color-interpolation-filters="sRGB">
<feFlood flood-opacity="0" result="BackgroundImageFix"/>
<feBlend mode="normal" in="SourceGraphic" in2="BackgroundImageFix" result="shape"/>
<feGaussianBlur stdDeviation="2" result="effect1_foregroundBlur_10_82"/>
</filter>
<filter id="filter5_f_10_82" x="182.939" y="112.396" width="74.4678" height="10" filterUnits="userSpaceOnUse" color-interpolation-filters="sRGB">
<feFlood flood-opacity="0" result="BackgroundImageFix"/>
<feBlend mode="normal" in="SourceGraphic" in2="BackgroundImageFix" result="shape"/>
<feGaussianBlur stdDeviation="2" result="effect1_foregroundBlur_10_82"/>
</filter>
<filter id="filter6_d_10_82" x="143.912" y="59.4651" width="148.253" height="126.91" filterUnits="userSpaceOnUse" color-interpolation-filters="sRGB">
<feFlood flood-opacity="0" result="BackgroundImageFix"/>
<feColorMatrix in="SourceAlpha" type="matrix" values="0 0 0 0 0 0 0 0 0 0 0 0 0 0 0 0 0 0 127 0" result="hardAlpha"/>
<feOffset dy="4"/>
<feGaussianBlur stdDeviation="2"/>
<feComposite in2="hardAlpha" operator="out"/>
<feColorMatrix type="matrix" values="0 0 0 0 0 0 0 0 0 0 0 0 0 0 0 0 0 0 0.25 0"/>
<feBlend mode="normal" in2="BackgroundImageFix" result="effect1_dropShadow_10_82"/>
<feBlend mode="normal" in="SourceGraphic" in2="effect1_dropShadow_10_82" result="shape"/>
</filter>
<filter id="filter7_d_10_82" x="199.403" y="356.681" width="64.9744" height="27.2686" filterUnits="userSpaceOnUse" color-interpolation-filters="sRGB">
<feFlood flood-opacity="0" result="BackgroundImageFix"/>
<feColorMatrix in="SourceAlpha" type="matrix" values="0 0 0 0 0 0 0 0 0 0 0 0 0 0 0 0 0 0 127 0" result="hardAlpha"/>
<feOffset dy="4"/>
<feGaussianBlur stdDeviation="2"/>
<feComposite in2="hardAlpha" operator="out"/>
<feColorMatrix type="matrix" values="0 0 0 0 0 0 0 0 0 0 0 0 0 0 0 0 0 0 0.25 0"/>
<feBlend mode="normal" in2="BackgroundImageFix" result="effect1_dropShadow_10_82"/>
<feBlend mode="normal" in="SourceGraphic" in2="effect1_dropShadow_10_82" result="shape"/>
</filter>
<filter id="filter8_d_10_82" x="144.522" y="356.681" width="64.9744" height="27.2686" filterUnits="userSpaceOnUse" color-interpolation-filters="sRGB">
<feFlood flood-opacity="0" result="BackgroundImageFix"/>
<feColorMatrix in="SourceAlpha" type="matrix" values="0 0 0 0 0 0 0 0 0 0 0 0 0 0 0 0 0 0 127 0" result="hardAlpha"/>
<feOffset dy="4"/>
<feGaussianBlur stdDeviation="2"/>
<feComposite in2="hardAlpha" operator="out"/>
<feColorMatrix type="matrix" values="0 0 0 0 0 0 0 0 0 0 0 0 0 0 0 0 0 0 0.25 0"/>
<feBlend mode="normal" in2="BackgroundImageFix" result="effect1_dropShadow_10_82"/>
<feBlend mode="normal" in="SourceGraphic" in2="effect1_dropShadow_10_82" result="shape"/>
</filter>
<filter id="filter9_d_10_82" x="157.528" y="226.778" width="108.173" height="144.582" filterUnits="userSpaceOnUse" color-interpolation-filters="sRGB">
<feFlood flood-opacity="0" result="BackgroundImageFix"/>
<feColorMatrix in="SourceAlpha" type="matrix" values="0 0 0 0 0 0 0 0 0 0 0 0 0 0 0 0 0 0 127 0" result="hardAlpha"/>
<feOffset dy="4"/>
<feGaussianBlur stdDeviation="2"/>
<feComposite in2="hardAlpha" operator="out"/>
<feColorMatrix type="matrix" values="0 0 0 0 0 0 0 0 0 0 0 0 0 0 0 0 0 0 0.25 0"/>
<feBlend mode="normal" in2="BackgroundImageFix" result="effect1_dropShadow_10_82"/>
<feBlend mode="normal" in="SourceGraphic" in2="effect1_dropShadow_10_82" result="shape"/>
</filter>
<filter id="filter10_d_10_82" x="145.965" y="29.5851" width="149.25" height="159.23" filterUnits="userSpaceOnUse" color-interpolation-filters="sRGB">
<feFlood flood-opacity="0" result="BackgroundImageFix"/>
<feColorMatrix in="SourceAlpha" type="matrix" values="0 0 0 0 0 0 0 0 0 0 0 0 0 0 0 0 0 0 127 0" result="hardAlpha"/>
<feOffset dy="4"/>
<feGaussianBlur stdDeviation="2"/>
<feComposite in2="hardAlpha" operator="out"/>
<feColorMatrix type="matrix" values="0 0 0 0 0 0 0 0 0 0 0 0 0 0 0 0 0 0 0.25 0"/>
<feBlend mode="normal" in2="BackgroundImageFix" result="effect1_dropShadow_10_82"/>
<feBlend mode="normal" in="SourceGraphic" in2="effect1_dropShadow_10_82" result="shape"/>
</filter>
<filter id="filter11_d_10_82" x="171.727" y="78.9787" width="178.969" height="183.012" filterUnits="userSpaceOnUse" color-interpolation-filters="sRGB">
<feFlood flood-opacity="0" result="BackgroundImageFix"/>
<feColorMatrix in="SourceAlpha" type="matrix" values="0 0 0 0 0 0 0 0 0 0 0 0 0 0 0 0 0 0 127 0" result="hardAlpha"/>
<feOffset dy="4"/>
<feGaussianBlur stdDeviation="2"/>
<feComposite in2="hardAlpha" operator="out"/>
<feColorMatrix type="matrix" values="0 0 0 0 0 0 0 0 0 0 0 0 0 0 0 0 0 0 0.25 0"/>
<feBlend mode="normal" in2="BackgroundImageFix" result="effect1_dropShadow_10_82"/>
<feBlend mode="normal" in="SourceGraphic" in2="effect1_dropShadow_10_82" result="shape"/>
</filter>
<filter id="filter12_d_10_82" x="249.772" y="0" width="62.9614" height="70.1779" filterUnits="userSpaceOnUse" color-interpolation-filters="sRGB">
<feFlood flood-opacity="0" result="BackgroundImageFix"/>
<feColorMatrix in="SourceAlpha" type="matrix" values="0 0 0 0 0 0 0 0 0 0 0 0 0 0 0 0 0 0 127 0" result="hardAlpha"/>
<feOffset dy="4"/>
<feGaussianBlur stdDeviation="2"/>
<feComposite in2="hardAlpha" operator="out"/>
<feColorMatrix type="matrix" values="0 0 0 0 0 0 0 0 0 0 0 0 0 0 0 0 0 0 0.25 0"/>
<feBlend mode="normal" in2="BackgroundImageFix" result="effect1_dropShadow_10_82"/>
<feBlend mode="normal" in="SourceGraphic" in2="effect1_dropShadow_10_82" result="shape"/>
</filter>
<filter id="filter13_d_10_82" x="179.461" y="138.739" width="189.365" height="258.627" filterUnits="userSpaceOnUse" color-interpolation-filters="sRGB">
<feFlood flood-opacity="0" result="BackgroundImageFix"/>
<feColorMatrix in="SourceAlpha" type="matrix" values="0 0 0 0 0 0 0 0 0 0 0 0 0 0 0 0 0 0 127 0" result="hardAlpha"/>
<feOffset dy="4"/>
<feGaussianBlur stdDeviation="2"/>
<feComposite in2="hardAlpha" operator="out"/>
<feColorMatrix type="matrix" values="0 0 0 0 0 0 0 0 0 0 0 0 0 0 0 0 0 0 0.25 0"/>
<feBlend mode="normal" in2="BackgroundImageFix" result="effect1_dropShadow_10_82"/>
<feBlend mode="normal" in="SourceGraphic" in2="effect1_dropShadow_10_82" result="shape"/>
</filter>
</defs>
</svg>
