<svg width="161" height="241" viewBox="0 0 161 241" fill="none" xmlns="http://www.w3.org/2000/svg">
<path d="M16.3695 74.8005L13.8771 180.31H50.0161V74.8005H60.4008L57.9085 180.31H103.186L100.278 74.8005H111.494V180.31H147.633L145.14 74.8005H156.356V229.35C156.356 232.54 155.646 237.118 152.47 236.821V236.821C149.891 236.581 149.245 232.924 149.152 230.335L147.633 187.787H111.494V233.614C111.494 236.223 111.2 239.668 108.611 239.986V239.986C105.797 240.331 104.796 236.08 104.701 233.246L103.186 187.787H57.9085L56.7636 233.581C56.698 236.208 56.0623 239.878 53.4364 239.976V239.976C50.6465 240.08 50.0161 236.102 50.0161 233.31V187.787H13.8771L12.7531 229.75C12.6739 232.706 12.0373 236.875 9.08052 236.931V236.931C6.15747 236.985 5.56932 232.727 5.56932 229.803V74.8005H16.3695Z" fill="#78625F"/>
<path d="M5.15393 44.0616H156.356V71.4774H5.15393V44.0616Z" fill="#78625F"/>
<path d="M1.02423 41.5994C1.44839 44.5389 5.39197 44.9773 8.36191 44.9773H153.472C156.587 44.9773 160.784 43.5649 160.497 40.4632V40.4632C160.241 37.7071 156.835 37 154.067 37H9.2463C5.73923 37 0.523365 38.1283 1.02423 41.5994V41.5994Z" fill="#967D7A"/>
<path d="M6.20607 71.4372C4.62182 71.4372 2.33824 71.5038 2.06954 73.0651V73.0651C1.75025 74.9205 4.79944 75.2159 6.68207 75.2159H155.888C157.512 75.2159 159.887 74.9383 159.879 73.314V73.314C159.872 71.7119 157.526 71.4372 155.924 71.4372H6.20607Z" fill="#967D7A"/>
<rect x="53.0084" y="48.3001" width="56.3238" height="19.7695" rx="0.5" fill="#846C68" stroke="#BEA5A3"/>
<circle cx="81.5857" cy="58.6003" r="4.1539" fill="#D0B6B5"/>
<path d="M26 0.5H127C129.485 0.5 131.5 2.51472 131.5 5V32C131.5 34.4853 129.485 36.5 127 36.5H26C23.5147 36.5 21.5 34.4853 21.5 32V5C21.5 2.51472 23.5147 0.5 26 0.5ZM111.608 4H40.7229C39.8945 4 39.2229 4.67157 39.2229 5.5V27C39.2229 27.8284 39.8945 28.5 40.7229 28.5H111.608C112.437 28.5 113.108 27.8284 113.108 27V5.5C113.108 4.67157 112.437 4 111.608 4Z" fill="#BEA5A3" stroke="#A78E8C"/>
<path d="M70.75 32C70.75 32.9665 69.9665 33.75 69 33.75C68.0335 33.75 67.25 32.9665 67.25 32C67.25 31.0335 68.0335 30.25 69 30.25C69.9665 30.25 70.75 31.0335 70.75 32ZM77.25 32C77.25 32.9665 76.4665 33.75 75.5 33.75C74.5335 33.75 73.75 32.9665 73.75 32C73.75 31.0335 74.5335 30.25 75.5 30.25C76.4665 30.25 77.25 31.0335 77.25 32ZM83.75 31.937C83.75 32.9035 82.9665 33.687 82 33.687C81.0335 33.687 80.25 32.9035 80.25 31.937C80.25 30.9705 81.0335 30.187 82 30.187C82.9665 30.187 83.75 30.9705 83.75 31.937Z" fill="#967D7A" stroke="#EED9D9" stroke-width="0.5"/>
<path d="M33.9999 18C33.9999 18.5523 33.5522 19 32.9999 19C32.4477 19 31.9999 18.5523 31.9999 18C31.9999 17.4477 32.4477 17 32.9999 17C33.5522 17 33.9999 17.4477 33.9999 18Z" fill="#EED9D9"/>
<path d="M33.9999 14.5C33.9999 15.0523 33.5522 15.5 32.9999 15.5C32.4477 15.5 31.9999 15.0523 31.9999 14.5C31.9999 13.9477 32.4477 13.5 32.9999 13.5C33.5522 13.5 33.9999 13.9477 33.9999 14.5Z" fill="#EED9D9"/>
<path d="M33.9999 11C33.9999 11.5523 33.5522 12 32.9999 12C32.4477 12 31.9999 11.5523 31.9999 11C31.9999 10.4477 32.4477 10 32.9999 10C33.5522 10 33.9999 10.4477 33.9999 11Z" fill="#EED9D9"/>
<path d="M33.9999 7.5C33.9999 8.05228 33.5522 8.5 32.9999 8.5C32.4477 8.5 31.9999 8.05228 31.9999 7.5C31.9999 6.94772 32.4477 6.5 32.9999 6.5C33.5522 6.5 33.9999 6.94772 33.9999 7.5Z" fill="#EED9D9"/>
<path d="M34 28.5C34 29.0523 33.5523 29.5 33 29.5C32.4477 29.5 32 29.0523 32 28.5C32 27.9477 32.4477 27.5 33 27.5C33.5523 27.5 34 27.9477 34 28.5Z" fill="#EED9D9"/>
<path d="M34 25C34 25.5523 33.5523 26 33 26C32.4477 26 32 25.5523 32 25C32 24.4477 32.4477 24 33 24C33.5523 24 34 24.4477 34 25Z" fill="#EED9D9"/>
<path d="M34 21.5C34 22.0523 33.5523 22.5 33 22.5C32.4477 22.5 32 22.0523 32 21.5C32 20.9477 32.4477 20.5 33 20.5C33.5523 20.5 34 20.9477 34 21.5Z" fill="#EED9D9"/>
<path d="M31 16.5C31 17.0523 30.5523 17.5 30 17.5C29.4477 17.5 29 17.0523 29 16.5C29 15.9477 29.4477 15.5 30 15.5C30.5523 15.5 31 15.9477 31 16.5Z" fill="#EED9D9"/>
<path d="M31 13C31 13.5523 30.5523 14 30 14C29.4477 14 29 13.5523 29 13C29 12.4477 29.4477 12 30 12C30.5523 12 31 12.4477 31 13Z" fill="#EED9D9"/>
<path d="M31 9.5C31 10.0523 30.5523 10.5 30 10.5C29.4477 10.5 29 10.0523 29 9.5C29 8.94772 29.4477 8.5 30 8.5C30.5523 8.5 31 8.94772 31 9.5Z" fill="#EED9D9"/>
<path d="M31 6C31 6.55228 30.5523 7 30 7C29.4477 7 29 6.55228 29 6C29 5.44772 29.4477 5 30 5C30.5523 5 31 5.44772 31 6Z" fill="#EED9D9"/>
<path d="M31.0001 27C31.0001 27.5523 30.5523 28 30.0001 28C29.4478 28 29.0001 27.5523 29.0001 27C29.0001 26.4477 29.4478 26 30.0001 26C30.5523 26 31.0001 26.4477 31.0001 27Z" fill="#EED9D9"/>
<path d="M31.0001 23.5C31.0001 24.0523 30.5523 24.5 30.0001 24.5C29.4478 24.5 29.0001 24.0523 29.0001 23.5C29.0001 22.9477 29.4478 22.5 30.0001 22.5C30.5523 22.5 31.0001 22.9477 31.0001 23.5Z" fill="#EED9D9"/>
<path d="M31.0001 20C31.0001 20.5523 30.5523 21 30.0001 21C29.4478 21 29.0001 20.5523 29.0001 20C29.0001 19.4477 29.4478 19 30.0001 19C30.5523 19 31.0001 19.4477 31.0001 20Z" fill="#EED9D9"/>
<path d="M28.4999 18C28.4999 18.5523 28.0522 19 27.4999 19C26.9477 19 26.4999 18.5523 26.4999 18C26.4999 17.4477 26.9477 17 27.4999 17C28.0522 17 28.4999 17.4477 28.4999 18Z" fill="#EED9D9"/>
<path d="M28.4999 14.5C28.4999 15.0523 28.0522 15.5 27.4999 15.5C26.9477 15.5 26.4999 15.0523 26.4999 14.5C26.4999 13.9477 26.9477 13.5 27.4999 13.5C28.0522 13.5 28.4999 13.9477 28.4999 14.5Z" fill="#EED9D9"/>
<path d="M28.4999 11C28.4999 11.5523 28.0522 12 27.4999 12C26.9477 12 26.4999 11.5523 26.4999 11C26.4999 10.4477 26.9477 10 27.4999 10C28.0522 10 28.4999 10.4477 28.4999 11Z" fill="#EED9D9"/>
<path d="M28.4999 7.5C28.4999 8.05228 28.0522 8.5 27.4999 8.5C26.9477 8.5 26.4999 8.05228 26.4999 7.5C26.4999 6.94772 26.9477 6.5 27.4999 6.5C28.0522 6.5 28.4999 6.94772 28.4999 7.5Z" fill="#EED9D9"/>
<path d="M28.5 28.5C28.5 29.0523 28.0523 29.5 27.5 29.5C26.9477 29.5 26.5 29.0523 26.5 28.5C26.5 27.9477 26.9477 27.5 27.5 27.5C28.0523 27.5 28.5 27.9477 28.5 28.5Z" fill="#EED9D9"/>
<path d="M28.5 25C28.5 25.5523 28.0523 26 27.5 26C26.9477 26 26.5 25.5523 26.5 25C26.5 24.4477 26.9477 24 27.5 24C28.0523 24 28.5 24.4477 28.5 25Z" fill="#EED9D9"/>
<path d="M28.5 21.5C28.5 22.0523 28.0523 22.5 27.5 22.5C26.9477 22.5 26.5 22.0523 26.5 21.5C26.5 20.9477 26.9477 20.5 27.5 20.5C28.0523 20.5 28.5 20.9477 28.5 21.5Z" fill="#EED9D9"/>
<path d="M126 18C126 18.5523 125.552 19 125 19C124.448 19 124 18.5523 124 18C124 17.4477 124.448 17 125 17C125.552 17 126 17.4477 126 18Z" fill="#EED9D9"/>
<path d="M126 14.5C126 15.0523 125.552 15.5 125 15.5C124.448 15.5 124 15.0523 124 14.5C124 13.9477 124.448 13.5 125 13.5C125.552 13.5 126 13.9477 126 14.5Z" fill="#EED9D9"/>
<path d="M126 11C126 11.5523 125.552 12 125 12C124.448 12 124 11.5523 124 11C124 10.4477 124.448 10 125 10C125.552 10 126 10.4477 126 11Z" fill="#EED9D9"/>
<path d="M126 7.5C126 8.05228 125.552 8.5 125 8.5C124.448 8.5 124 8.05228 124 7.5C124 6.94772 124.448 6.5 125 6.5C125.552 6.5 126 6.94772 126 7.5Z" fill="#EED9D9"/>
<path d="M126 28.5C126 29.0523 125.552 29.5 125 29.5C124.448 29.5 124 29.0523 124 28.5C124 27.9477 124.448 27.5 125 27.5C125.552 27.5 126 27.9477 126 28.5Z" fill="#EED9D9"/>
<path d="M126 25C126 25.5523 125.552 26 125 26C124.448 26 124 25.5523 124 25C124 24.4477 124.448 24 125 24C125.552 24 126 24.4477 126 25Z" fill="#EED9D9"/>
<path d="M126 21.5C126 22.0523 125.552 22.5 125 22.5C124.448 22.5 124 22.0523 124 21.5C124 20.9477 124.448 20.5 125 20.5C125.552 20.5 126 20.9477 126 21.5Z" fill="#EED9D9"/>
<path d="M123 16.5C123 17.0523 122.552 17.5 122 17.5C121.448 17.5 121 17.0523 121 16.5C121 15.9477 121.448 15.5 122 15.5C122.552 15.5 123 15.9477 123 16.5Z" fill="#EED9D9"/>
<path d="M123 13C123 13.5523 122.552 14 122 14C121.448 14 121 13.5523 121 13C121 12.4477 121.448 12 122 12C122.552 12 123 12.4477 123 13Z" fill="#EED9D9"/>
<path d="M123 9.5C123 10.0523 122.552 10.5 122 10.5C121.448 10.5 121 10.0523 121 9.5C121 8.94772 121.448 8.5 122 8.5C122.552 8.5 123 8.94772 123 9.5Z" fill="#EED9D9"/>
<path d="M123 6C123 6.55228 122.552 7 122 7C121.448 7 121 6.55228 121 6C121 5.44772 121.448 5 122 5C122.552 5 123 5.44772 123 6Z" fill="#EED9D9"/>
<path d="M123 27C123 27.5523 122.552 28 122 28C121.448 28 121 27.5523 121 27C121 26.4477 121.448 26 122 26C122.552 26 123 26.4477 123 27Z" fill="#EED9D9"/>
<path d="M123 23.5C123 24.0523 122.552 24.5 122 24.5C121.448 24.5 121 24.0523 121 23.5C121 22.9477 121.448 22.5 122 22.5C122.552 22.5 123 22.9477 123 23.5Z" fill="#EED9D9"/>
<path d="M123 20C123 20.5523 122.552 21 122 21C121.448 21 121 20.5523 121 20C121 19.4477 121.448 19 122 19C122.552 19 123 19.4477 123 20Z" fill="#EED9D9"/>
<path d="M120.5 18C120.5 18.5523 120.052 19 119.5 19C118.948 19 118.5 18.5523 118.5 18C118.5 17.4477 118.948 17 119.5 17C120.052 17 120.5 17.4477 120.5 18Z" fill="#EED9D9"/>
<path d="M120.5 14.5C120.5 15.0523 120.052 15.5 119.5 15.5C118.948 15.5 118.5 15.0523 118.5 14.5C118.5 13.9477 118.948 13.5 119.5 13.5C120.052 13.5 120.5 13.9477 120.5 14.5Z" fill="#EED9D9"/>
<path d="M120.5 11C120.5 11.5523 120.052 12 119.5 12C118.948 12 118.5 11.5523 118.5 11C118.5 10.4477 118.948 10 119.5 10C120.052 10 120.5 10.4477 120.5 11Z" fill="#EED9D9"/>
<path d="M120.5 7.5C120.5 8.05228 120.052 8.5 119.5 8.5C118.948 8.5 118.5 8.05228 118.5 7.5C118.5 6.94772 118.948 6.5 119.5 6.5C120.052 6.5 120.5 6.94772 120.5 7.5Z" fill="#EED9D9"/>
<path d="M120.5 28.5C120.5 29.0523 120.052 29.5 119.5 29.5C118.948 29.5 118.5 29.0523 118.5 28.5C118.5 27.9477 118.948 27.5 119.5 27.5C120.052 27.5 120.5 27.9477 120.5 28.5Z" fill="#EED9D9"/>
<path d="M120.5 25C120.5 25.5523 120.052 26 119.5 26C118.948 26 118.5 25.5523 118.5 25C118.5 24.4477 118.948 24 119.5 24C120.052 24 120.5 24.4477 120.5 25Z" fill="#EED9D9"/>
<path d="M120.5 21.5C120.5 22.0523 120.052 22.5 119.5 22.5C118.948 22.5 118.5 22.0523 118.5 21.5C118.5 20.9477 118.948 20.5 119.5 20.5C120.052 20.5 120.5 20.9477 120.5 21.5Z" fill="#EED9D9"/>
</svg>
