<svg width="245" height="320" viewBox="0 0 245 320" fill="none" xmlns="http://www.w3.org/2000/svg">
<g filter="url(#filter0_d_14_145)">
<path d="M103.01 234.279C129.939 230.158 145.11 230.114 171.676 234.279C144.84 238.796 129.844 238.739 103.01 234.279Z" fill="#4E3D34"/>
<path d="M39.0062 76.6011C39.0062 74.717 39.8259 72.9261 41.2518 71.6947L44.2159 69.1348C46.8748 66.8384 50.264 65.6653 53.7636 65.3557C57.017 65.0678 59.903 64.3861 64.0143 62.6135C65.5726 61.9468 66.7686 61.4095 67.8422 60.883C70.2575 59.6984 71.6439 57.1515 71.6439 54.4614V54.4614C71.6439 53.137 71.301 51.8332 70.6491 50.6804C68.6387 47.1247 67.3433 45.0126 64.0143 42.6918C60.7697 40.4715 58.1948 38.9366 57.2158 36.9222C56.5352 35.522 56.5864 33.8696 56.4181 32.3219C55.9779 28.2738 56.9984 25.3672 57.9235 21.5949C58.3492 19.8588 58.9609 18.1589 59.9456 16.6672C63.415 11.4114 66.2907 9.0504 71.6439 6.66318C77.1389 4.10831 80.119 2.96181 85.2076 1.57679C90.5672 -0.489252 94.1973 -0.367471 100.016 1.03226C101.442 1.37543 102.79 1.98373 104.083 2.67724C107.507 4.51398 110.118 5.37179 114.291 9.79377C114.975 10.5194 115.717 11.1907 116.465 11.8514C120.575 15.4846 122.216 20.1366 123.626 25.946C123.729 26.3701 123.779 26.8053 123.779 27.2417V27.2417C123.779 30.9597 127.324 33.6538 130.906 32.6587L137.408 30.8527C138.488 30.5525 139.609 30.4184 140.729 30.4782C145.957 30.7573 149.431 31.3763 155.569 34.6383C160.945 37.2454 163.065 39.05 165.742 42.6918C169.53 49.3891 171.015 53.5706 172.079 59.7571C172.402 61.6389 172.313 63.575 171.793 65.4122C170.446 70.1678 169.042 72.8317 166.516 75.7389C166.011 76.3207 165.434 76.8402 164.839 77.3297C159.495 81.725 157.758 84.7647 155.569 90.1648C153.554 94.6951 152.661 97.8237 151.994 101.731C151.491 104.679 152.045 107.701 153.383 110.376L158.96 121.531L170.083 138.563C171.676 141.002 172.524 143.851 172.524 146.764V170.636C172.524 173.447 171.734 176.202 170.244 178.586L160.212 194.637C157.344 199.227 152.225 201.915 146.819 201.672L119.602 200.449C118.435 200.396 117.278 200.208 116.155 199.887L96.5242 194.278C91.3593 192.802 87.3778 188.678 86.0855 183.464L76.944 146.583C76.2511 143.787 74.7678 141.25 72.6716 139.275L55.9032 123.474C54.5408 122.19 53.4307 120.662 52.6304 118.97L40.4464 93.2098C39.4981 91.2047 39.0062 89.0143 39.0062 86.7964V76.6011V76.6011Z" fill="#5E997B"/>
<path d="M131.409 246.147C124.612 172.913 117.222 123.17 100.467 49.0497" stroke="#529176" stroke-width="5" stroke-linecap="round"/>
<path d="M146.898 219.395C147.935 220.219 150.358 221.562 151.682 221.55C160.657 221.466 166.294 221.046 175.915 218.596C184.745 216.898 188.492 215.046 194.141 210.966C196.937 209.45 198.663 208.358 200.951 205.708C201.799 204.725 202.408 203.548 202.662 202.275C203.139 199.877 202.997 198.068 202.194 195.283C201.552 193.407 200.781 192.095 199.178 190.27C198.13 189.078 196.734 188.271 195.251 187.707C193.536 187.054 192.172 186.302 190.587 184.611C190.118 184.111 189.739 183.535 189.413 182.931L189.222 182.575C187.778 179.895 187.648 176.7 188.868 173.911V173.911C189.546 172.361 190.598 170.992 191.989 170.029C195.599 167.528 198.71 166.115 204.314 164.341C210.433 163.116 212.155 162.111 219.573 161.798C226.335 161.513 228.982 159.325 232.506 157.617C233.199 157.281 233.88 156.911 234.485 156.434C236.591 154.772 237.563 153.484 238.647 151.201C239.787 149.037 240.447 147.514 240.877 145.051C241.143 143.529 240.908 141.972 240.366 140.525L239.078 137.093C238.792 136.329 238.416 135.599 237.94 134.936C235.904 132.103 234.228 130.401 231.391 128.881C230.06 128.168 228.835 127.27 227.774 126.196C225.621 124.016 223.52 122.706 219.573 121.107L214.529 119.502C211.806 118.636 209.584 116.646 208.423 114.034L207.978 113.032C207.244 111.382 206.919 109.553 207.282 107.784C207.635 106.063 208.139 104.666 209.012 103.127C209.76 101.809 210.944 100.814 212.239 100.027C216.213 97.6123 218.604 95.4375 222.116 91.4363C225.707 87.8989 227.294 85.7166 228.951 82.0954C229.203 81.5448 229.394 80.9669 229.521 80.3747C230.444 76.052 230.336 73.289 229.488 68.9515C229.381 68.4008 229.223 67.8585 229.005 67.3413C227.673 64.1787 226.212 62.39 222.841 60.1227C222.362 59.8007 221.849 59.5338 221.317 59.31L215.2 56.7343C214.445 56.4163 213.652 56.189 212.84 56.0746C208.487 55.461 206.043 55.478 202.948 56.0962C202.446 56.1966 201.936 56.27 201.425 56.3115C195.371 56.8025 192.252 58.2936 187.73 61.6007C187.2 61.9885 186.71 62.436 186.28 62.9323C181.52 68.4244 180.385 71.9763 179.73 78.2965C178.596 87.4218 177.024 91.3564 173.168 96.6469C173.023 96.8452 172.903 97.0627 172.815 97.2917V97.2917C172.001 99.4074 169.116 99.6743 167.928 97.7438L167.854 97.6234C167.582 97.1809 167.437 96.6715 167.437 96.1519V95.4909C167.437 93.1129 165.807 91.045 163.495 90.4901L157.991 89.1692C157.227 88.9858 156.444 88.8931 155.658 88.8931H147.401C146.354 88.8931 145.308 89.0523 144.32 89.3976C138.274 91.5085 135.614 93.4757 131.409 96.9466C128.348 100.085 127.013 102.139 126.782 106.002C126.738 106.743 126.658 107.484 126.498 108.209C125.493 112.761 125.311 115.699 126.531 120.325C126.669 120.846 126.777 121.377 126.844 121.912C127.659 128.455 128.765 132.287 131.409 138.909C136.057 147.334 139.332 151.167 145.82 157.136L147.824 158.694C148.967 159.583 149.635 160.952 149.635 162.4V162.4C149.635 163.642 149.142 164.834 148.264 165.712V165.712C146.812 167.165 144.581 167.5 142.766 166.539L138.615 164.341C134.491 162.631 132.172 161.993 128.018 162.222C123.574 162.514 121.273 162.906 119.037 163.549C117.406 164.019 115.959 164.99 114.877 166.298C111.653 170.195 110.284 173.162 109.368 178.329C107.865 183.277 108.227 186.166 108.909 190.092C109.21 191.826 109.938 193.474 111.124 194.775C114.241 198.195 116.576 199.612 120.388 201.218C124.759 203.424 127.166 204.822 131.409 207.576L132.583 208.29C136.405 210.617 143.394 216.613 146.898 219.395V219.395Z" fill="#83B582"/>
<path d="M146.244 240.213C152.419 200.072 159.483 170.926 175.915 131.28" stroke="#6FA66F" stroke-width="6" stroke-linecap="round"/>
<path d="M120.284 222.51C120.939 221.908 121.625 221.33 122.37 220.844C130.313 215.657 134.966 209.476 143.823 198.621C144.021 198.378 144.185 198.1 144.296 197.806C146.607 191.698 146.46 188.111 144.206 181.94C144.153 181.795 144.087 181.651 144.011 181.516C142.237 178.385 140.506 176.527 137.145 174.291C135.637 173.288 133.837 172.869 132.037 172.669C131.425 172.602 130.861 172.514 130.344 172.416C127.769 171.926 126.323 169.506 126.323 166.884V166.884C126.783 163.328 127.717 161.124 130.043 158.523C131.408 156.996 132.485 155.213 132.958 153.22C133.884 149.312 134.632 146.127 133.952 141.029C133.24 135.686 132.005 133.014 129.462 127.817C129.348 127.584 129.204 127.365 129.033 127.17C125.814 123.51 123.486 121.964 118.612 120.766C118.386 120.71 118.152 120.683 117.919 120.683H110.409C107.775 120.683 106.419 117.532 108.231 115.62L110.912 112.79C111.013 112.683 111.123 112.583 111.238 112.492C114.741 109.689 115.918 107.093 116.141 100.62C116.147 100.434 116.135 100.244 116.106 100.06C115.337 95.2773 114.381 91.9446 112.336 89.9057C111.572 89.1437 110.722 88.4557 110 87.654C105.897 83.1014 103.382 83.0454 99.1954 81.2635C93.2142 79.6195 89.494 79.8238 84.1445 81.2962C82.3374 81.7935 80.8067 82.934 79.3964 84.1684C77.2415 86.0545 75.4262 86.4346 72.4918 86.7738H71.1839C68.2492 86.7738 65.2805 85.5922 63.8577 83.0255C62.5735 80.7088 62.1781 78.4608 62.6169 75.4542C62.8745 73.6891 62.9231 71.876 62.3724 70.1792C60.506 64.4284 58.7345 61.8678 54.6894 58.7986C48.0902 54.5806 44.2025 53.4025 36.8871 53.7122C29.4033 53.6589 25.1957 53.9896 18.281 56.5071C17.9721 56.6196 17.6819 56.7859 17.4278 56.9945C12.6788 60.8927 10.3648 63.3385 7.80038 67.8406C7.69387 68.0276 7.60875 68.2289 7.54382 68.434C6.16775 72.7824 4.52068 74.838 4.24926 80.8397C3.63746 84.5296 4.24713 87.5145 5.04954 92.4162C5.08115 92.6093 5.13258 92.8035 5.20154 92.9866C8.74899 102.406 12.099 106.191 20.3563 110.086C28.5451 113.246 31.7572 115.332 34.3685 117.925C36.078 119.623 36.8871 122.01 36.8871 124.419V124.61C36.8871 126.476 36.365 128.305 35.3799 129.889L27.2882 142.907C27.1884 143.067 27.1029 143.239 27.0357 143.416C24.3269 150.541 24.0578 154.721 25.0188 162.222C26.3743 169.673 27.8977 172.953 31.3768 177.905C36.3187 184.546 39.9069 187.653 47.1613 190.339C48.4813 190.827 49.9054 190.965 51.3081 190.848C59.2849 190.181 64.1806 190.663 71.562 192.88C72.1664 193.061 72.6956 193.436 73.0743 193.941L75.7895 197.561C76.1274 198.012 76.3378 198.549 76.3642 199.112C76.4792 201.561 76.0782 203.207 74.4553 204.967C73.2827 206.239 72.1314 207.565 71.4947 209.173C69.9463 213.085 69.1375 215.923 69.9037 218.074C70.1396 218.737 70.4929 219.358 70.7757 220.002C74.1158 227.606 79.6032 227.972 85.6314 229.193C93.907 231.156 98.1257 230.171 106.401 228.345C112.528 226.102 116.383 226.092 120.284 222.51Z" fill="#6FA66F"/>
<path d="M57.9862 108.778C57.0293 107.425 55.1571 107.104 53.8045 108.061C52.4518 109.018 52.131 110.89 53.0878 112.243L57.9862 108.778ZM125.33 236.652C106.525 184.504 91.7003 156.438 57.9862 108.778L53.0878 112.243C86.5094 159.49 101.075 187.077 119.686 238.688L125.33 236.652Z" fill="#5E8D5E"/>
<path d="M103.01 234.279V304.061C103.01 305.406 103.909 306.59 105.208 306.941C129.928 313.62 144.731 313.3 169.442 306.922C170.759 306.582 171.676 305.39 171.676 304.03V234.279C145.413 238.758 130.681 238.677 103.01 234.279Z" fill="#C29170"/>
<path d="M103.01 234.279V304.047C103.01 305.399 103.916 306.586 105.223 306.933C128.962 313.245 144.055 314.11 169.509 306.957C170.792 306.597 171.676 305.42 171.676 304.087V299.978C151.415 304.373 140.061 304.223 121.236 299.978C116.741 298.836 114.913 297.45 114.878 291.501V235.975C109.363 235.431 107.634 235.011 103.01 234.279Z" fill="#A06E4D"/>
</g>
<defs>
<filter id="filter0_d_14_145" x="0" y="0" width="244.987" height="320" filterUnits="userSpaceOnUse" color-interpolation-filters="sRGB">
<feFlood flood-opacity="0" result="BackgroundImageFix"/>
<feColorMatrix in="SourceAlpha" type="matrix" values="0 0 0 0 0 0 0 0 0 0 0 0 0 0 0 0 0 0 127 0" result="hardAlpha"/>
<feOffset dy="4"/>
<feGaussianBlur stdDeviation="2"/>
<feComposite in2="hardAlpha" operator="out"/>
<feColorMatrix type="matrix" values="0 0 0 0 0 0 0 0 0 0 0 0 0 0 0 0 0 0 0.25 0"/>
<feBlend mode="normal" in2="BackgroundImageFix" result="effect1_dropShadow_14_145"/>
<feBlend mode="normal" in="SourceGraphic" in2="effect1_dropShadow_14_145" result="shape"/>
</filter>
</defs>
</svg>
