<svg width="194" height="133" viewBox="0 0 194 133" fill="none" xmlns="http://www.w3.org/2000/svg">
<g filter="url(#filter0_d_71_82)">
<path d="M4 3.99942L189.399 0.711908L187.772 121.364L8.93127 124.651L4 3.99942Z" fill="#2A4D70" fill-opacity="0.8"/>
<path d="M59.8884 32.9297L53.1123 39.7058C51.291 41.5271 49.8387 43.683 48.8351 46.0552L47.4289 49.3788C46.9695 50.4648 46.6069 51.5893 46.3456 52.7392L45.0946 58.2435L41.9661 67.629C41.6414 68.6031 41.2422 69.5508 40.772 70.4636L35.8896 79.9411L34.297 83.3254C33.6079 84.7896 33.0991 86.3321 32.7818 87.919L32.333 90.163C32.0747 91.4544 31.9446 92.7683 31.9446 94.0853V98.0137C31.9446 99.7429 32.3958 101.442 33.2537 102.943V102.943C34.119 104.458 35.3677 105.718 36.8742 106.596L37.2758 106.831C38.1019 107.313 38.9841 107.691 39.9025 107.958L45.9792 109.722C47.7912 110.248 49.6686 110.515 51.5554 110.515H56.6009L66.4635 111.501H71.1679C74.9408 111.501 78.6508 110.234 81.6546 107.951V107.951C83.9603 106.199 85.8087 103.86 86.9634 101.204V101.204C87.9753 98.8771 88.6323 96.4112 88.9125 93.889L88.9472 93.5773C89.0802 92.3795 89.0947 91.1714 88.9903 89.9707L88.4898 84.2149V80.1913C88.4898 78.281 88.7635 76.3806 89.3025 74.548L90.1335 71.7223L91.4485 65.1473L92.2338 59.6506C92.3676 58.7137 92.4348 57.7685 92.4348 56.8222V52.5027C92.4348 51.5096 92.3608 50.5179 92.2135 49.5358L91.761 46.5192C91.5533 45.1342 91.2006 43.7749 90.7089 42.4636L90.1883 41.0754C89.7147 39.8123 89.37 38.5046 89.1597 37.1722L88.0866 30.3762C87.7061 27.9666 86.6319 25.7201 84.9953 23.9112L84.9212 23.8292C82.5883 21.2507 79.2734 19.7796 75.7962 19.7796V19.7796C72.3618 19.7796 69.0836 21.2149 66.7541 23.7386L66.4635 24.0534L61.2034 31.2859L59.8884 32.9297Z" fill="#6EBEF8" fill-opacity="0.8"/>
<path d="M105.914 50.0247V68.4348L107.229 82.5711L108.597 90.232C108.78 91.2599 109.044 92.2718 109.385 93.2584L111.244 98.6262C111.634 99.7556 112.126 100.848 112.712 101.889L113.317 102.965C114.293 104.7 115.537 106.269 117.005 107.614L117.551 108.115C118.337 108.835 119.21 109.456 120.149 109.961V109.961C122.026 110.972 124.125 111.501 126.257 111.501H126.814C127.564 111.501 128.312 111.445 129.053 111.334L134.515 110.515L147.994 109.2H152.799C154.82 109.2 156.807 108.672 158.563 107.669L158.924 107.463C159.956 106.873 160.868 106.093 161.611 105.164V105.164C162.599 103.93 163.26 102.466 163.535 100.909L163.851 99.1206C164.018 98.1711 164.103 97.2088 164.103 96.2447V93.3934C164.103 92.317 164.016 91.2423 163.843 90.1799L162.06 79.2262C161.888 78.1703 161.631 77.13 161.293 76.1151L157.199 63.8323L151.61 51.9973L146.342 42.2136C145.269 40.2208 143.71 38.5313 141.81 37.3017V37.3017C140.04 36.1564 138.564 34.6109 137.502 32.7899L134.515 27.6697L132.252 24.6528C130.532 22.3592 128.037 20.769 125.231 20.1784L125.102 20.1512C123.933 19.9051 122.732 19.8508 121.546 19.9904V19.9904C119.087 20.2797 116.796 21.3897 115.045 23.141L113.917 24.269C112.326 25.8598 111.098 27.7756 110.316 29.8853L108.794 33.9949C108.409 35.0363 108.11 36.108 107.903 37.1989L106.9 42.4635L105.914 50.0247Z" fill="#6EBEF8" fill-opacity="0.8"/>
<path d="M59.8884 32.9297L53.1123 39.7058C51.291 41.5271 49.8387 43.683 48.8351 46.0552L47.4289 49.3788C46.9695 50.4648 46.6069 51.5893 46.3456 52.7392L45.0946 58.2435L41.9661 67.629C41.6414 68.6031 41.2422 69.5508 40.772 70.4636L35.8896 79.9411L34.297 83.3254C33.6079 84.7896 33.0991 86.3321 32.7818 87.919L32.333 90.163C32.0747 91.4544 31.9446 92.7683 31.9446 94.0853V98.0137C31.9446 99.7429 32.3958 101.442 33.2537 102.943V102.943C34.119 104.458 35.3677 105.718 36.8742 106.596L37.2758 106.831C38.1019 107.313 38.9841 107.691 39.9025 107.958L45.9792 109.722C47.7912 110.248 49.6686 110.515 51.5554 110.515H56.6009L66.4635 111.501H71.1679C74.9408 111.501 78.6508 110.234 81.6546 107.951V107.951C83.9603 106.199 85.8087 103.86 86.9634 101.204V101.204C87.9753 98.8771 88.6323 96.4112 88.9125 93.889L88.9472 93.5773C89.0802 92.3795 89.0947 91.1714 88.9903 89.9707L88.4898 84.2149V80.1913C88.4898 78.281 88.7635 76.3806 89.3025 74.548L90.1335 71.7223L91.4485 65.1473L92.2338 59.6506C92.3676 58.7137 92.4348 57.7685 92.4348 56.8222V52.5027C92.4348 51.5096 92.3608 50.5179 92.2135 49.5358L91.761 46.5192C91.5533 45.1342 91.2006 43.7749 90.7089 42.4636L90.1883 41.0754C89.7147 39.8123 89.37 38.5046 89.1597 37.1722L88.0866 30.3762C87.7061 27.9666 86.6319 25.7201 84.9953 23.9112L84.9212 23.8292C82.5883 21.2507 79.2734 19.7796 75.7962 19.7796V19.7796C72.3618 19.7796 69.0836 21.2149 66.7541 23.7386L66.4635 24.0534L61.2034 31.2859L59.8884 32.9297Z" stroke="#9EBFFF" stroke-linecap="round"/>
<path d="M105.914 50.0247V68.4348L107.229 82.5711L108.597 90.232C108.78 91.2599 109.044 92.2718 109.385 93.2584L111.244 98.6262C111.634 99.7556 112.126 100.848 112.712 101.889L113.317 102.965C114.293 104.7 115.537 106.269 117.005 107.614L117.551 108.115C118.337 108.835 119.21 109.456 120.149 109.961V109.961C122.026 110.972 124.125 111.501 126.257 111.501H126.814C127.564 111.501 128.312 111.445 129.053 111.334L134.515 110.515L147.994 109.2H152.799C154.82 109.2 156.807 108.672 158.563 107.669L158.924 107.463C159.956 106.873 160.868 106.093 161.611 105.164V105.164C162.599 103.93 163.26 102.466 163.535 100.909L163.851 99.1206C164.018 98.1711 164.103 97.2088 164.103 96.2447V93.3934C164.103 92.317 164.016 91.2423 163.843 90.1799L162.06 79.2262C161.888 78.1703 161.631 77.13 161.293 76.1151L157.199 63.8323L151.61 51.9973L146.342 42.2136C145.269 40.2208 143.71 38.5313 141.81 37.3017V37.3017C140.04 36.1564 138.564 34.6109 137.502 32.7899L134.515 27.6697L132.252 24.6528C130.532 22.3592 128.037 20.769 125.231 20.1784L125.102 20.1512C123.933 19.9051 122.732 19.8508 121.546 19.9904V19.9904C119.087 20.2797 116.796 21.3897 115.045 23.141L113.917 24.269C112.326 25.8598 111.098 27.7756 110.316 29.8853L108.794 33.9949C108.409 35.0363 108.11 36.108 107.903 37.1989L106.9 42.4635L105.914 50.0247Z" stroke="#9EBFFF" stroke-linecap="round"/>
<path d="M93.0911 2.68451H103.282L102.954 9.25953L103.282 18.4646L103.65 21.7689C103.842 23.5031 104.268 25.2032 104.916 26.8233V26.8233C105.577 28.4754 106.463 30.0287 107.548 31.4391L112.393 37.7381C112.456 37.8195 112.53 37.8907 112.615 37.9493L118.75 42.2176C119.613 42.8178 120.541 43.318 121.517 43.7084L122.179 43.973C122.947 44.2801 123.754 44.4777 124.577 44.5599L124.836 44.5859C126.012 44.7035 127.199 44.5488 128.306 44.1339V44.1339C128.935 43.8979 129.531 43.5806 130.078 43.19L131.388 42.2538C131.499 42.1746 131.619 42.1091 131.745 42.0585L132.745 41.6587C133.001 41.5561 133.294 41.6672 133.417 41.9143V41.9143C133.487 42.0541 133.492 42.2175 133.43 42.3611L132.777 43.8851C132.621 44.2504 132.412 44.591 132.158 44.8963L131.155 46.0989C130.989 46.2989 130.898 46.551 130.898 46.8113V46.8113C130.898 47.3416 131.272 47.7983 131.792 47.9023L133.916 48.3272C134.095 48.363 134.271 48.4117 134.443 48.4731L138.788 50.0247L141.48 51.2486C142.082 51.522 142.586 51.9718 142.926 52.5384L143.317 53.1899C143.365 53.2699 143.39 53.3615 143.39 53.4548V53.4548C143.39 53.7392 143.16 53.9697 142.875 53.9697H140.947C140.823 53.9697 140.698 53.9602 140.575 53.9413L137.845 53.5212C136.943 53.3824 136.062 53.1302 135.223 52.7707V52.7707C134.533 52.475 133.814 52.2517 133.078 52.1045L131.036 51.6962C130.944 51.6777 130.85 51.6684 130.756 51.6684H130.565C129.994 51.6684 129.502 52.0717 129.39 52.6319V52.6319C129.306 53.0527 129.453 53.4864 129.776 53.769L131.553 55.3239C131.773 55.5166 131.977 55.7273 132.162 55.9538L133.971 58.1641C134.55 58.8723 135.207 59.5133 135.929 60.075V60.075C137.166 61.0367 138.575 61.7521 140.082 62.1825L142.404 62.846L146.219 64.0198C146.512 64.11 146.755 64.3161 146.892 64.5903L146.958 64.7217C147.173 65.1526 147.034 65.6765 146.633 65.9438V65.9438C146.449 66.0664 146.229 66.1215 146.008 66.0995L143.194 65.818C143.11 65.8096 143.027 65.8393 142.967 65.8989V65.8989C142.844 66.0217 142.861 66.2254 143.003 66.3263L144.883 67.6696C144.983 67.7412 145.078 67.8211 145.165 67.9083L146.736 69.4791C147.569 70.3128 148.279 71.2615 148.844 72.2965V72.2965C149.585 73.6549 150.064 75.1405 150.256 76.6759L150.294 76.9823V78.1906C150.294 78.4506 150.127 78.6815 149.881 78.7637V78.7637C149.564 78.8693 149.222 78.6982 149.117 78.3816L148.65 76.9823V76.9823C148.218 75.4689 147.439 74.077 146.375 72.9168L145.541 72.0063C144.767 71.1621 143.901 70.407 142.959 69.7551L140.103 67.7772L136.158 65.476L134.291 64.4094C134.006 64.2466 133.684 64.161 133.356 64.161H132.7C132.22 64.161 131.802 64.4873 131.686 64.9524V64.9524C131.604 65.2808 131.686 65.6287 131.906 65.8858L133.28 67.4883C133.445 67.6807 133.624 67.8606 133.815 68.0265L138.459 72.051L142.404 75.6673V75.6673C143.488 76.7518 144.341 78.0453 144.911 79.4694L145.363 80.5985L146.133 83.2949C146.494 84.5602 147.02 85.7726 147.698 86.901V86.901C148.33 87.9554 149.09 88.9282 149.959 89.7977L151.609 91.4473L153.876 93.4307C154.112 93.6377 154.28 93.912 154.356 94.2169L154.51 94.8317C154.546 94.9756 154.503 95.1278 154.399 95.2326V95.2326C154.299 95.3324 154.156 95.3757 154.017 95.348L153.148 95.1741C152.786 95.1017 152.45 94.9344 152.174 94.6893L149.636 92.4336L148.971 91.7679C148.774 91.5714 148.484 91.5028 148.22 91.5907V91.5907C147.895 91.6991 147.688 92.0183 147.722 92.3595L147.993 95.0636L148.565 97.6399C148.62 97.8891 148.599 98.1491 148.505 98.3861L148.381 98.6944C148.172 99.2175 147.56 99.45 147.056 99.1981V99.1981C146.815 99.0773 146.635 98.8608 146.561 98.6013L146.02 96.7074L145.363 93.0911L145.341 92.8525C145.138 90.6167 144.559 88.431 143.63 86.3872L143.39 85.8586L141.932 82.651C141.809 82.3792 141.659 82.12 141.485 81.877L140.341 80.2754C140.192 80.0656 139.95 79.941 139.692 79.941V79.941C139.348 79.941 139.043 80.1609 138.934 80.4869L138.459 81.9136L138.083 83.6049C137.896 84.4443 137.576 85.2482 137.133 85.9856V85.9856C136.921 86.3387 136.683 86.6749 136.419 86.9913L135.171 88.4886L133.199 90.7898L132.704 91.4078C132.161 92.0874 131.728 92.8487 131.423 93.6636V93.6636C131.075 94.5894 130.898 95.5701 130.898 96.5588V97.3649V97.7568C130.898 98.2666 130.484 98.6799 129.974 98.6799V98.6799C129.551 98.6799 129.182 98.3916 129.079 97.9807L128.686 96.4081C128.626 96.1701 128.596 95.9259 128.596 95.6806V94.9795C128.596 93.5247 128.961 92.0931 129.658 90.8159L130.569 89.1461L132.87 85.8586L133.674 84.3855C134.445 82.9717 134.918 81.4148 135.064 79.811L135.12 79.1872C135.154 78.814 135.15 78.4384 135.109 78.066L134.945 76.59C134.88 76.0012 134.574 75.4657 134.1 75.1102L133.879 74.9449C133.651 74.7736 133.373 74.681 133.088 74.681V74.681C132.738 74.681 132.402 74.82 132.155 75.0674L132.048 75.1742C131.732 75.4899 131.555 75.9181 131.555 76.3647V77.3766C131.555 78.1913 131.314 78.9878 130.862 79.6656L130.564 80.1124C130.349 80.4357 130.102 80.7369 129.827 81.0117L128.596 82.2423L127.452 83.3869C127.34 83.4984 127.2 83.5775 127.047 83.6158L126.717 83.6983C126.336 83.7937 125.966 83.5051 125.966 83.1118V83.1118C125.966 82.9746 126.013 82.8414 126.099 82.7342L126.871 81.7694C127.143 81.4293 127.359 81.0483 127.512 80.6405L127.834 79.7808C128.122 79.0139 128.313 78.2143 128.404 77.4003L128.596 75.6673V71.3935L128.045 66.7078C127.974 66.1068 127.855 65.5123 127.689 64.9304V64.9304C127.418 63.9832 127.025 63.0757 126.518 62.231L125.309 60.216L123.777 57.1531C123.703 57.0036 123.615 56.8612 123.514 56.7275L122.825 55.8087C122.733 55.6858 122.588 55.6135 122.435 55.6135V55.6135C122.196 55.6135 121.993 55.7859 121.953 56.0213L121.692 57.586L121.364 60.8735L120.914 63.122C120.776 63.813 120.706 64.5159 120.706 65.2205V65.2205C120.706 66.2619 120.858 67.2978 121.158 68.2952L121.316 68.8233C121.566 69.6584 121.741 70.5144 121.837 71.381L122.021 73.0373V74.5241C122.021 75.0661 121.976 75.6072 121.887 76.1419V76.1419C121.758 76.9185 121.536 77.6768 121.226 78.4005L120.706 79.6123L119.851 81.0373C119.765 81.1813 119.647 81.3044 119.508 81.3976L119.145 81.6391C118.906 81.7987 118.587 81.7671 118.384 81.5637V81.5637C118.2 81.38 118.155 81.0993 118.271 80.8669L118.631 80.1471C118.699 80.0103 118.749 79.8651 118.779 79.7151L118.923 78.996C119.016 78.5313 119.062 78.0586 119.062 77.5847V75.4994C119.062 73.8641 118.862 72.2351 118.465 70.6487L118.405 70.4073L117.747 67.7772L117.09 65.1472L116.962 64.2531C116.828 63.3162 116.761 62.371 116.761 61.4246V59.2297L117.09 55.9422V54.8523C117.09 53.8294 116.965 52.8104 116.716 51.8181V51.8181C116.312 50.2005 115.588 48.68 114.588 47.3461L114.131 46.7372L112.889 45.1849C111.967 44.0316 110.919 42.9841 109.766 42.0614L108.214 40.8196L107.784 40.4759C105.923 38.987 103.653 38.0987 101.276 37.9289V37.9289C100.642 37.8836 100.006 37.8898 99.3732 37.9473L98.3711 38.0384C97.2639 38.1391 96.167 38.3318 95.0919 38.6148L93.573 39.0145C91.5117 39.5569 89.5503 40.4254 87.7631 41.5871L85.8819 42.8099C84.5589 43.6699 83.3724 44.7236 82.3623 45.9358L81.8252 46.5802C81.0136 47.5541 80.3771 48.6614 79.9438 49.8529L79.6142 50.7593C79.3955 51.3608 79.2836 51.9958 79.2836 52.6358V52.6358C79.2836 53.7199 79.6045 54.7798 80.2058 55.6818L80.5986 56.271L82.0814 59.0247C82.6253 60.0348 83.0523 61.1035 83.3541 62.2103V62.2103C83.7072 63.505 83.8861 64.841 83.8861 66.183V67.4485V69.6431C83.8861 69.9031 83.7197 70.134 83.473 70.2162V70.2162C83.1565 70.3217 82.8143 70.1506 82.7088 69.8341L82.2424 68.4348L81.67 65.5732C81.6134 65.29 81.5275 65.0134 81.4137 64.748L80.7701 63.246C80.662 62.994 80.4424 62.8069 80.1764 62.7404V62.7404C79.6903 62.6189 79.2014 62.9283 79.1031 63.4196L78.9548 64.161L78.3709 66.2049C78.3221 66.3754 78.2473 66.5374 78.1489 66.685L77.8486 67.1354C77.7182 67.331 77.4986 67.4485 77.2635 67.4485V67.4485C76.9135 67.4485 76.6168 67.1912 76.5673 66.8447L76.3609 65.4C76.3369 65.232 76.3309 65.0619 76.343 64.8926L76.6536 60.5447V60.4488C76.6536 58.9985 76.3159 57.5681 75.6673 56.271V56.271L74.7771 53.897C74.7133 53.7269 74.6302 53.5646 74.5294 53.4134L73.9074 52.4805C73.5982 52.0166 72.9919 51.8556 72.4932 52.1049V52.1049C72.2119 52.2455 72.0038 52.4994 71.921 52.8028L71.0648 55.9422L69.7498 60.216L69.4915 61.6369C69.2324 63.0619 69.4424 64.5325 70.0902 65.828V65.828C70.301 66.2496 70.5558 66.6479 70.8503 67.016L73.0373 69.7498L74.82 71.5324C75.3824 72.0948 75.8673 72.7297 76.2619 73.4202V73.4202C76.7391 74.2553 77.0785 75.1618 77.2671 76.1049L77.6398 77.9685L78.1876 80.7071C78.2595 81.0668 78.2363 81.4391 78.1203 81.7871L77.8077 82.7248C77.7075 83.0257 77.426 83.2286 77.1089 83.2286V83.2286C76.8298 83.2286 76.5748 83.0709 76.45 82.8213L75.8603 81.642C75.7324 81.3862 75.6434 81.1126 75.5964 80.8304L75.503 80.2698C75.394 79.616 75.1879 78.9821 74.8914 78.3892L74.6811 77.9685V77.9685C74.0311 76.2353 73.0176 74.6613 71.7087 73.3524L71.3936 73.0373L69.0923 71.0648L67.7088 69.9118C67.3282 69.5947 66.8485 69.421 66.3532 69.421H66.2489C65.754 69.421 65.2795 69.6176 64.9296 69.9675V69.9675C64.6441 70.2529 64.4589 70.6233 64.4018 71.0229L64.2553 72.049C64.1927 72.4867 64.1888 72.9308 64.2437 73.3696L64.2712 73.5902C64.4145 74.7359 64.8542 75.8244 65.547 76.7481L67.4486 79.2835L71.0648 84.5436L73.3437 87.2782C74.0151 88.0839 74.7488 88.8355 75.538 89.5261L76.9823 90.7898L78.9453 92.4724C79.1645 92.6602 79.3144 92.9162 79.371 93.1992L79.4087 93.3879C79.5227 93.9579 79.1689 94.517 78.605 94.6579V94.6579C78.4041 94.7082 78.193 94.7001 77.9965 94.6346L76.998 94.3017C76.5527 94.1533 76.1373 93.9273 75.7708 93.6341L74.9477 92.9757C74.7751 92.8376 74.5606 92.7623 74.3396 92.7623V92.7623C73.8019 92.7623 73.3661 93.1982 73.3661 93.7359V94.4061V99.065C73.3661 99.4434 73.1879 99.7997 72.8852 100.027V100.027C72.4066 100.386 71.7368 100.338 71.3138 99.9151L71.2536 99.8549C71.129 99.7303 71.0311 99.5818 70.9657 99.4183L70.7256 98.8181C70.5153 98.2924 70.4073 97.7315 70.4073 97.1654V95.9015C70.4073 95.1259 70.3254 94.3525 70.1629 93.5941L69.4211 90.1323L68.8651 88.2792C68.5792 87.3261 68.1855 86.4086 67.6918 85.5446L67.6009 85.3856C67.2808 84.8253 66.9121 84.2943 66.499 83.7986L65.7795 82.9352C65.5783 82.6937 65.3432 82.4825 65.0817 82.3081L64.2331 81.7424C63.782 81.4417 63.2042 81.4057 62.7192 81.6482V81.6482C62.3781 81.8188 62.1141 82.112 61.9802 82.4691L61.2023 84.5436L59.8873 87.5023V87.5023C59.4521 88.5903 58.8356 89.5966 58.064 90.4784L57.9156 90.648C57.2602 91.397 56.7032 92.2267 56.2581 93.1168L55.6135 94.4061L55.0496 95.5339C54.5525 96.5281 54.2281 97.5997 54.0902 98.7027L54.0124 99.3251C53.984 99.5519 53.9334 99.7753 53.8611 99.9922L53.4921 101.099C53.3789 101.439 53.1124 101.705 52.7729 101.818L52.6058 101.874C52.4267 101.934 52.2311 101.92 52.0622 101.835V101.835C51.8209 101.715 51.6685 101.468 51.6685 101.198V97.9368C51.6685 97.3397 51.7578 96.746 51.9334 96.1753L52.3957 94.6728C52.7861 93.4038 53.3288 92.1868 54.0119 91.0483L54.956 89.4748L56.9285 85.2011L58.2435 81.256L59.1424 77.6606C59.2004 77.4284 59.2298 77.19 59.2298 76.9507V74.6331C59.2298 74.2964 58.9569 74.0235 58.6202 74.0235V74.0235C58.3894 74.0235 58.1783 74.154 58.075 74.3605L57.7228 75.0651C57.6322 75.2462 57.513 75.4115 57.3698 75.5547L56.361 76.5635C55.8639 77.0607 55.3189 77.5074 54.7339 77.8974L52.6548 79.2835L51.2517 80.2189C50.2373 80.8952 49.0454 81.256 47.8262 81.256H47.1684C47.1004 81.256 47.0326 81.2477 46.9666 81.2312V81.2312C46.3894 81.0869 46.1458 80.4009 46.5028 79.9249L46.5678 79.8382C46.6781 79.6911 46.8307 79.5811 47.0051 79.523L48.6207 78.9845C49.3319 78.7474 49.9956 78.3863 50.5811 77.9179L51.9896 76.7911C52.6483 76.2642 53.2216 75.6388 53.6895 74.937L54.0506 74.3954C54.2151 74.1486 54.346 73.8809 54.4398 73.5995L54.69 72.8491C54.8578 72.3456 54.7838 71.7927 54.4893 71.351V71.351C54.3634 71.162 54.2012 70.9999 54.0123 70.8739L53.3123 70.4073L52.4687 69.9855C52.1613 69.8318 51.9063 69.5905 51.7358 69.2921L51.0873 68.1574C50.8778 67.7907 51.0561 67.3239 51.4568 67.1903V67.1903C51.5942 67.1445 51.7428 67.1445 51.8802 67.1903L53.2722 67.6543C53.5177 67.7361 53.7714 67.799 54.0266 67.8415V67.8415C55.0521 68.0124 56.1144 67.8555 57.0443 67.3906V67.3906C57.4041 67.2107 57.7404 66.9874 58.0458 66.7256L58.6122 66.2402C59.4573 65.5158 60.1874 64.667 60.7773 63.7231L61.531 62.5172L63.1748 58.901L65.1473 55.2847L65.8578 53.8637C66.0283 53.5227 66.003 53.1164 65.7915 52.7991V52.7991C65.5944 52.5035 65.2626 52.3259 64.9074 52.3259H64.8683C64.6226 52.3259 64.3835 52.4056 64.187 52.5531L63.7579 52.8749C63.3758 53.1615 62.9255 53.3434 62.4515 53.4026L60.5448 53.6409H56.9285H55.2284C54.633 53.6409 54.062 53.4044 53.641 52.9834L53.1447 52.4871C53.0415 52.3839 52.9835 52.244 52.9835 52.098V52.098C52.9835 51.8456 53.1553 51.6255 53.4003 51.5642L54.1194 51.3845C54.2384 51.3547 54.3605 51.3397 54.4831 51.3397H55.6135L57.6165 51.0893C58.0229 51.0385 58.4007 50.8537 58.6903 50.5641L58.8811 50.3734C59.1043 50.1501 59.2298 49.8473 59.2298 49.5316V49.5316C59.2298 49.2158 59.1043 48.913 58.8811 48.6897L58.3519 48.1606C58.2798 48.0885 58.215 48.0095 58.1585 47.9246L57.9507 47.613C57.7299 47.2817 57.7299 46.8501 57.9507 46.5188V46.5188C58.1337 46.2445 58.4416 46.0797 58.7713 46.0797H59.6616C60.2349 46.0797 60.7927 46.2656 61.2514 46.6096L61.4862 46.7858C61.7342 46.9717 62.0056 47.1242 62.2933 47.2393L62.529 47.3336C63.1728 47.5911 63.8598 47.7234 64.5531 47.7234H64.8486C66.3247 47.7234 67.7628 47.2558 68.9566 46.3876L70.7361 45.0934L75.9961 41.8059L83.8861 36.5459L86.3079 35.162C87.7487 34.3387 89.021 33.2504 90.0576 31.9546V31.9546C90.7621 31.0741 91.3505 30.1068 91.8084 29.0763L91.8468 28.99C92.237 28.1121 92.5351 27.1961 92.7364 26.2567L92.9759 25.1389C93.2711 23.7615 93.4199 22.3569 93.4199 20.9483V18.7933V11.232V5.97202L93.0911 2.68451Z" fill="#DFF1FA" fill-opacity="0.7"/>
<path d="M93.3402 3H103.531L103.203 9.57502L103.531 18.7801L103.899 22.0844C104.091 23.8186 104.517 25.5187 105.165 27.1388V27.1388C105.826 28.7909 106.712 30.3442 107.797 31.7546L112.642 38.0536C112.705 38.135 112.779 38.2062 112.864 38.2648L118.999 42.5331C119.862 43.1333 120.79 43.6335 121.766 44.0239L122.428 44.2885C123.196 44.5956 124.003 44.7932 124.826 44.8754L125.085 44.9014C126.261 45.019 127.448 44.8643 128.555 44.4494V44.4494C129.184 44.2134 129.78 43.8961 130.327 43.5055L131.637 42.5693C131.748 42.4901 131.868 42.4246 131.994 42.374L132.994 41.9742C133.251 41.8716 133.543 41.9827 133.666 42.2298V42.2298C133.736 42.3695 133.741 42.533 133.68 42.6766L133.026 44.2006C132.87 44.5659 132.661 44.9065 132.407 45.2118L131.404 46.4144C131.238 46.6144 131.147 46.8665 131.147 47.1267V47.1267C131.147 47.6571 131.521 48.1138 132.041 48.2178L134.165 48.6427C134.344 48.6785 134.52 48.7272 134.692 48.7886L139.037 50.3402L141.729 51.5641C142.331 51.8375 142.835 52.2873 143.175 52.8539L143.566 53.5054C143.614 53.5854 143.639 53.677 143.639 53.7703V53.7703C143.639 54.0547 143.409 54.2852 143.124 54.2852H141.196C141.072 54.2852 140.947 54.2757 140.824 54.2568L138.094 53.8367C137.192 53.6979 136.311 53.4457 135.472 53.0861V53.0861C134.782 52.7905 134.063 52.5672 133.327 52.42L131.286 52.0117C131.193 51.9932 131.099 51.9839 131.005 51.9839H130.814C130.243 51.9839 129.751 52.3872 129.639 52.9474V52.9474C129.555 53.3682 129.702 53.8019 130.025 54.0845L131.802 55.6394C132.022 55.8321 132.226 56.0428 132.411 56.2693L134.22 58.4796C134.799 59.1878 135.456 59.8287 136.178 60.3905V60.3905C137.415 61.3522 138.824 62.0676 140.331 62.498L142.653 63.1615L146.468 64.3353C146.761 64.4255 147.004 64.6316 147.141 64.9058L147.207 65.0372C147.422 65.4681 147.283 65.992 146.882 66.2593V66.2593C146.698 66.3819 146.478 66.437 146.258 66.4149L143.443 66.1335C143.359 66.1251 143.276 66.1548 143.216 66.2144V66.2144C143.093 66.3372 143.11 66.5409 143.252 66.6418L145.132 67.985C145.232 68.0567 145.327 68.1366 145.414 68.2238L146.985 69.7946C147.818 70.6282 148.528 71.577 149.093 72.612V72.612C149.834 73.9704 150.313 75.456 150.505 76.9914L150.543 77.2978V78.5061C150.543 78.7661 150.376 78.997 150.13 79.0792V79.0792C149.813 79.1847 149.471 79.0137 149.366 78.6971L148.899 77.2978V77.2978C148.467 75.7844 147.688 74.3925 146.624 73.2322L145.79 72.3218C145.016 71.4776 144.15 70.7225 143.208 70.0706L140.352 68.0927L136.407 65.7915L134.54 64.7249C134.255 64.5621 133.933 64.4765 133.605 64.4765H132.949C132.469 64.4765 132.051 64.8028 131.935 65.2679V65.2679C131.853 65.5963 131.935 65.9442 132.155 66.2013L133.529 67.8038C133.694 67.9962 133.873 68.1761 134.064 68.342L138.708 72.3665L142.653 75.9828V75.9828C143.737 77.0673 144.59 78.3608 145.16 79.7849L145.612 80.914L146.382 83.6104C146.744 84.8757 147.27 86.0881 147.947 87.2165V87.2165C148.579 88.2709 149.339 89.2437 150.208 90.1132L151.858 91.7628L154.125 93.7462C154.361 93.9532 154.529 94.2275 154.605 94.5324L154.759 95.1472C154.795 95.2911 154.752 95.4432 154.648 95.5481V95.5481C154.548 95.6479 154.405 95.6912 154.266 95.6635L153.397 95.4896C153.035 95.4172 152.699 95.2499 152.423 95.0047L149.885 92.7491L149.22 92.0834C149.023 91.8869 148.733 91.8183 148.469 91.9062V91.9062C148.144 92.0146 147.937 92.3338 147.971 92.675L148.242 95.3791L148.814 97.9554C148.869 98.2045 148.848 98.4646 148.754 98.7016L148.63 99.0099C148.421 99.533 147.809 99.7655 147.306 99.5136V99.5136C147.064 99.3928 146.884 99.1763 146.81 98.9168L146.269 97.0228L145.612 93.4066L145.59 93.168C145.387 90.9322 144.808 88.7465 143.879 86.7027L143.639 86.1741L142.181 82.9665C142.058 82.6947 141.908 82.4354 141.734 82.1925L140.59 80.5908C140.441 80.381 140.199 80.2565 139.941 80.2565V80.2565C139.597 80.2565 139.292 80.4764 139.183 80.8024L138.708 82.229L138.332 83.9204C138.145 84.7598 137.825 85.5637 137.382 86.3011V86.3011C137.17 86.6542 136.932 86.9904 136.668 87.3068L135.42 88.8041L133.448 91.1053L132.953 91.7233C132.41 92.4029 131.977 93.1642 131.672 93.9791V93.9791C131.324 94.9049 131.147 95.8856 131.147 96.8743V97.6803V98.0723C131.147 98.5821 130.733 98.9954 130.223 98.9954V98.9954C129.8 98.9954 129.431 98.7071 129.328 98.2962L128.935 96.7235C128.875 96.4856 128.845 96.2413 128.845 95.9961V95.295C128.845 93.8401 129.21 92.4086 129.907 91.1314L130.818 89.4616L133.119 86.1741L133.923 84.701C134.694 83.2872 135.167 81.7303 135.313 80.1265L135.369 79.5027C135.403 79.1295 135.399 78.7539 135.358 78.3815L135.194 76.9055C135.129 76.3167 134.823 75.7812 134.349 75.4257L134.128 75.2604C133.9 75.0891 133.622 74.9965 133.337 74.9965V74.9965C132.987 74.9965 132.651 75.1355 132.404 75.3829L132.297 75.4896C131.981 75.8054 131.804 76.2336 131.804 76.6802V77.6921C131.804 78.5068 131.563 79.3033 131.111 79.9811L130.813 80.4279C130.598 80.7512 130.351 81.0524 130.076 81.3272L128.845 82.5578L127.701 83.7024C127.589 83.8139 127.449 83.893 127.296 83.9313L126.966 84.0138C126.585 84.1092 126.215 83.8206 126.215 83.4273V83.4273C126.215 83.2901 126.262 83.1569 126.348 83.0497L127.12 82.0849C127.392 81.7448 127.608 81.3638 127.761 80.956L128.084 80.0963C128.371 79.3294 128.562 78.5298 128.653 77.7158L128.845 75.9828V71.709L128.294 67.0233C128.223 66.4222 128.104 65.8278 127.938 65.2459V65.2459C127.667 64.2987 127.274 63.3911 126.767 62.5464L125.558 60.5315L124.026 57.4686C123.952 57.3191 123.864 57.1767 123.763 57.043L123.074 56.1242C122.982 56.0013 122.837 55.9289 122.684 55.9289V55.9289C122.445 55.9289 122.242 56.1014 122.202 56.3368L121.942 57.9015L121.613 61.189L121.163 63.4375C121.025 64.1285 120.955 64.8314 120.955 65.536V65.536C120.955 66.5774 121.107 67.6132 121.407 68.6107L121.565 69.1388C121.815 69.9739 121.99 70.8299 122.086 71.6964L122.27 73.3528V74.8396C122.27 75.3816 122.225 75.9227 122.136 76.4574V76.4574C122.007 77.234 121.785 77.9923 121.475 78.716L120.955 79.9278L120.1 81.3528C120.014 81.4968 119.897 81.6199 119.757 81.7131L119.394 81.9546C119.155 82.1142 118.836 82.0826 118.633 81.8792V81.8792C118.449 81.6954 118.404 81.4148 118.52 81.1824L118.88 80.4626C118.948 80.3258 118.998 80.1806 119.028 80.0306L119.172 79.3115C119.265 78.8468 119.312 78.3741 119.312 77.9002V75.8149C119.312 74.1796 119.111 72.5506 118.714 70.9642L118.654 70.7227L117.997 68.0927L117.339 65.4627L117.211 64.5685C117.077 63.6317 117.01 62.6865 117.01 61.7401V59.5452L117.339 56.2577V55.1678C117.339 54.1449 117.214 53.1259 116.965 52.1336V52.1336C116.561 50.516 115.837 48.9955 114.837 47.6616L114.38 47.0527L113.138 45.5004C112.216 44.3471 111.168 43.2996 110.015 42.3769L108.463 41.1351L108.033 40.7914C106.172 39.3024 103.902 38.4142 101.525 38.2444V38.2444C100.891 38.1991 100.255 38.2053 99.6222 38.2628L98.6201 38.3539C97.5129 38.4545 96.4161 38.6473 95.3409 38.9303L93.8221 39.33C91.7607 39.8724 89.7993 40.7409 88.0122 41.9026L86.1309 43.1254C84.8079 43.9854 83.6215 45.0391 82.6113 46.2513L82.0742 46.8957C81.2626 47.8696 80.6261 48.9769 80.1928 50.1684L79.8632 51.0748C79.6445 51.6762 79.5326 52.3113 79.5326 52.9513V52.9513C79.5326 54.0354 79.8535 55.0953 80.4549 55.9973L80.8476 56.5864L82.3304 59.3402C82.8743 60.3503 83.3013 61.419 83.6031 62.5257V62.5257C83.9562 63.8205 84.1351 65.1565 84.1351 66.4985V67.764V69.9585C84.1351 70.2186 83.9687 70.4495 83.722 70.5317V70.5317C83.4055 70.6372 83.0633 70.4661 82.9578 70.1496L82.4914 68.7502L81.9191 65.8887C81.8624 65.6055 81.7765 65.3289 81.6628 65.0635L81.0191 63.5615C80.9111 63.3095 80.6914 63.1224 80.4254 63.0559V63.0559C79.9393 62.9344 79.4504 63.2438 79.3521 63.7351L79.2039 64.4765L78.6199 66.5204C78.5712 66.6909 78.4963 66.8529 78.3979 67.0004L78.0976 67.4508C77.9672 67.6465 77.7476 67.764 77.5125 67.764V67.764C77.1626 67.764 76.8658 67.5067 76.8164 67.1602L76.61 65.7155C76.586 65.5475 76.58 65.3774 76.592 65.2081L76.9026 60.8602V60.7643C76.9026 59.314 76.5649 57.8836 75.9164 56.5864V56.5864L75.0261 54.2125C74.9623 54.0424 74.8792 53.8801 74.7784 53.7289L74.1564 52.796C73.8472 52.3321 73.2409 52.171 72.7422 52.4204V52.4204C72.4609 52.561 72.2528 52.8149 72.17 53.1183L71.3138 56.2577L69.9988 60.5315L69.7405 61.9524C69.4814 63.3774 69.6915 64.848 70.3392 66.1435V66.1435C70.55 66.5651 70.8048 66.9633 71.0993 67.3315L73.2863 70.0652L75.069 71.8479C75.6314 72.4103 76.1163 73.0452 76.5109 73.7357V73.7357C76.9881 74.5708 77.3275 75.4773 77.5161 76.4204L77.8889 78.284L78.4366 81.0226C78.5085 81.3823 78.4853 81.7546 78.3693 82.1026L78.0568 83.0403C77.9565 83.3411 77.675 83.544 77.3579 83.544V83.544C77.0789 83.544 76.8238 83.3864 76.699 83.1368L76.1094 81.9575C75.9814 81.7016 75.8924 81.4281 75.8454 81.1459L75.752 80.5853C75.643 79.9315 75.4369 79.2976 75.1405 78.7047L74.9301 78.284V78.284C74.2801 76.5508 73.2666 74.9768 71.9577 73.6679L71.6426 73.3528L69.3413 71.3803L67.9578 70.2273C67.5772 69.9102 67.0975 69.7365 66.6022 69.7365H66.4979C66.0031 69.7365 65.5285 69.9331 65.1786 70.283V70.283C64.8931 70.5684 64.708 70.9388 64.6509 71.3384L64.5043 72.3644C64.4418 72.8022 64.4379 73.2463 64.4927 73.6851L64.5203 73.9057C64.6635 75.0514 65.1032 76.1399 65.796 77.0636L67.6976 79.599L71.3138 84.8591L73.5927 87.5937C74.2641 88.3994 74.9978 89.151 75.7871 89.8416L77.2314 91.1053L79.1943 92.7879C79.4135 92.9757 79.5634 93.2317 79.62 93.5147L79.6577 93.7034C79.7717 94.2734 79.4179 94.8324 78.854 94.9734V94.9734C78.6531 95.0237 78.442 95.0156 78.2455 94.9501L77.247 94.6172C76.8017 94.4688 76.3863 94.2428 76.0198 93.9496L75.1968 93.2912C75.0241 93.1531 74.8097 93.0778 74.5886 93.0778V93.0778C74.051 93.0778 73.6151 93.5137 73.6151 94.0513V94.7216V99.3805C73.6151 99.7589 73.4369 100.115 73.1342 100.342V100.342C72.6556 100.701 71.9859 100.654 71.5628 100.231L71.5026 100.17C71.3781 100.046 71.2801 99.8973 71.2147 99.7338L70.9746 99.1335C70.7644 98.6079 70.6563 98.047 70.6563 97.4809V96.217C70.6563 95.4414 70.5744 94.668 70.4119 93.9096L69.6701 90.4478L69.1142 88.5947C68.8282 87.6416 68.4346 86.7241 67.9408 85.86L67.85 85.701C67.5298 85.1408 67.1611 84.6098 66.748 84.1141L66.0285 83.2507C65.8273 83.0092 65.5922 82.798 65.3307 82.6236L64.4822 82.0579C64.031 81.7572 63.4533 81.7212 62.9683 81.9637V81.9637C62.6271 82.1342 62.3631 82.4275 62.2292 82.7846L61.4513 84.8591L60.1363 87.8178V87.8178C59.7011 88.9058 59.0846 89.9121 58.313 90.7939L58.1646 90.9635C57.5093 91.7125 56.9523 92.5421 56.5072 93.4323L55.8625 94.7216L55.2987 95.8493C54.8015 96.8436 54.4771 97.9152 54.3392 99.0182L54.2614 99.6406C54.2331 99.8674 54.1824 100.091 54.1101 100.308L53.7411 101.415C53.6279 101.754 53.3614 102.021 53.0219 102.134L52.8549 102.19C52.6757 102.249 52.4801 102.235 52.3112 102.151V102.151C52.0699 102.03 51.9175 101.784 51.9175 101.514V98.2523C51.9175 97.6552 52.0068 97.0614 52.1824 96.4908L52.6447 94.9883C53.0351 93.7193 53.5778 92.5023 54.2609 91.3638L55.205 89.7903L57.1775 85.5166L58.4925 81.5715L59.3914 77.9761C59.4494 77.7439 59.4788 77.5055 59.4788 77.2662V74.9485C59.4788 74.6119 59.2059 74.339 58.8693 74.339V74.339C58.6384 74.339 58.4273 74.4695 58.3241 74.676L57.9718 75.3805C57.8812 75.5617 57.762 75.727 57.6188 75.8702L56.61 76.879C56.1129 77.3761 55.5679 77.8229 54.983 78.2129L52.9038 79.599L51.5008 80.5344C50.4863 81.2107 49.2944 81.5715 48.0752 81.5715H47.4174C47.3494 81.5715 47.2816 81.5632 47.2156 81.5467V81.5467C46.6384 81.4024 46.3948 80.7164 46.7518 80.2403L46.8168 80.1537C46.9272 80.0066 47.0797 79.8966 47.2541 79.8385L48.8697 79.3C49.581 79.0629 50.2447 78.7018 50.8301 78.2334L52.2386 77.1066C52.8973 76.5797 53.4707 75.9543 53.9385 75.2525L54.2996 74.7109C54.4642 74.4641 54.5951 74.1964 54.6889 73.915L54.939 73.1646C55.1069 72.661 55.0328 72.1082 54.7384 71.6665V71.6665C54.6124 71.4775 54.4502 71.3154 54.2613 71.1894L53.5613 70.7227L52.7177 70.301C52.4103 70.1473 52.1553 69.906 51.9848 69.6076L51.3364 68.4729C51.1268 68.1062 51.3051 67.6394 51.7059 67.5058V67.5058C51.8432 67.46 51.9918 67.46 52.1292 67.5058L53.5213 67.9698C53.7667 68.0516 54.0204 68.1145 54.2756 68.157V68.157C55.3012 68.3279 56.3634 68.171 57.2934 67.7061V67.7061C57.6531 67.5262 57.9895 67.3029 58.2949 67.0411L58.8612 66.5556C59.7064 65.8312 60.4364 64.9825 61.0264 64.0386L61.7801 62.8327L63.4238 59.2165L65.3963 55.6002L66.1068 54.1792C66.2773 53.8382 66.252 53.4319 66.0405 53.1146V53.1146C65.8434 52.819 65.5117 52.6414 65.1564 52.6414H65.1173C64.8716 52.6414 64.6326 52.7211 64.436 52.8685L64.0069 53.1904C63.6248 53.4769 63.1745 53.6588 62.7006 53.7181L60.7938 53.9564H57.1775H55.4774C54.882 53.9564 54.311 53.7199 53.89 53.2989L53.3937 52.8026C53.2905 52.6994 53.2325 52.5595 53.2325 52.4135V52.4135C53.2325 52.161 53.4044 51.941 53.6493 51.8797L54.3684 51.7C54.4874 51.6702 54.6095 51.6552 54.7321 51.6552H55.8625L57.8655 51.4048C58.2719 51.354 58.6498 51.1692 58.9394 50.8796L59.1301 50.6889C59.3534 50.4656 59.4788 50.1628 59.4788 49.847V49.847C59.4788 49.5313 59.3534 49.2285 59.1301 49.0052L58.6009 48.4761C58.5289 48.404 58.4641 48.3249 58.4075 48.2401L58.1998 47.9285C57.9789 47.5972 57.9789 47.1656 58.1998 46.8343V46.8343C58.3827 46.56 58.6906 46.3952 59.0204 46.3952H59.9106C60.4839 46.3952 61.0417 46.5811 61.5004 46.9251L61.7353 47.1012C61.9832 47.2872 62.2546 47.4397 62.5424 47.5548L62.7781 47.6491C63.4218 47.9066 64.1088 48.0389 64.8021 48.0389H65.0976C66.5737 48.0389 68.0119 47.5713 69.2056 46.7031L70.9851 45.4089L76.2451 42.1214L84.1351 36.8614L86.5569 35.4775C87.9978 34.6542 89.27 33.5659 90.3067 32.2701V32.2701C91.0111 31.3896 91.5995 30.4222 92.0575 29.3918L92.0958 29.3055C92.486 28.4276 92.7841 27.5116 92.9854 26.5722L93.225 25.4543C93.5201 24.077 93.6689 22.6724 93.6689 21.2638V19.1088V11.5475V6.28751L93.3402 3Z" fill="#FFFF69" fill-opacity="0.5"/>
<path d="M9.41089 124.142L4.52048 4.49027L188.892 1.22097L187.279 120.873L9.41089 124.142Z" stroke="#2A4D70"/>
<g filter="url(#filter1_d_71_82)">
<path d="M150.658 59.048C150.419 59.1675 150.211 59.341 150.051 59.5548L149.721 59.9939C149.453 60.3515 149.308 60.7863 149.308 61.2333V61.6751C149.308 62.3633 149.777 62.9631 150.444 63.13L150.47 63.1364C150.572 63.1619 150.676 63.1748 150.781 63.1748H151.205C151.984 63.1748 152.445 64.0158 152.452 64.7939V64.7939C152.458 65.3548 152.16 65.9136 151.616 66.0497L151.42 66.0986C151.328 66.1218 151.233 66.1335 151.137 66.1335H150.984C150.572 66.1335 150.207 66.3969 150.077 66.7874V66.7874C150.005 67.002 150.012 67.235 150.096 67.445L150.365 68.1177C150.526 68.5206 150.88 68.8148 151.305 68.8999L151.716 68.9821C152.042 69.0472 152.37 68.8866 152.518 68.59V68.59C152.569 68.4879 152.596 68.3754 152.596 68.2612V68.0589C152.596 67.7218 152.869 67.4485 153.206 67.4485V67.4485C153.437 67.4485 153.642 67.5817 153.763 67.7781C153.879 67.9671 153.998 68.1099 154.148 68.2138C154.515 68.4671 154.897 68.7797 154.897 69.225V69.3096C154.897 69.5794 154.745 69.826 154.503 69.9466V69.9466C154.335 70.0311 154.206 70.1792 154.146 70.3584L154.089 70.5308C153.977 70.8677 154.026 71.2376 154.223 71.5331L154.278 71.6156C154.465 71.8958 154.749 72.0963 155.076 72.178L155.744 72.3449C155.836 72.3681 155.932 72.3798 156.027 72.3798H156.159C156.583 72.3798 156.96 72.1081 157.094 71.7054V71.7054C157.162 71.503 157.162 71.2841 157.094 71.0817L156.891 70.4728C156.877 70.4294 156.87 70.384 156.87 70.3382V70.3382C156.87 70.0483 157.153 69.85 157.438 69.9012C157.513 69.9146 157.583 69.9238 157.649 69.9288C158.068 69.9607 158.513 70.2228 158.513 70.6427V70.736V71.7223V71.7223C158.513 72.2958 158.918 72.7895 159.48 72.902L159.577 72.9213C159.946 72.9951 160.329 72.9082 160.63 72.6823L161.041 72.3747C161.312 72.1709 161.472 71.8512 161.472 71.5116V71.5116C161.472 71.2255 161.358 70.9511 161.156 70.7488L160.923 70.5154C160.851 70.4438 160.768 70.3842 160.678 70.3389L160.544 70.2718C160.307 70.1534 160.157 69.9112 160.157 69.6463V69.6108C160.157 69.307 160.384 69.07 160.646 68.9156V68.9156C161.048 68.6783 161.555 68.4145 161.928 68.6947L162.129 68.8455C162.337 69.0009 162.458 69.2446 162.458 69.5035V70.0009C162.458 70.2682 162.521 70.5317 162.64 70.7707L162.676 70.842C162.946 71.3815 163.497 71.7223 164.1 71.7223V71.7223C164.522 71.7223 164.927 71.5545 165.226 71.2559L165.76 70.7221C165.966 70.5161 166.112 70.258 166.183 69.9753L166.208 69.8737C166.329 69.3889 166.187 68.8761 165.834 68.5227V68.5227C165.567 68.2559 165.205 68.106 164.828 68.106H164.657C164.295 68.106 163.941 67.9988 163.64 67.798L163.116 67.4485L163.096 67.4386C162.731 67.2563 162.551 66.9028 162.613 66.5001V66.5001C162.706 65.9053 163.167 65.1473 163.768 65.1473H164.267C164.376 65.1473 164.483 65.1648 164.586 65.1991V65.1991C165.063 65.358 165.584 65.1422 165.809 64.6927L165.834 64.6419C165.986 64.3392 165.986 63.9829 165.834 63.6801L165.49 62.9925C165.442 62.8955 165.378 62.8069 165.301 62.7302L165.119 62.5481C164.763 62.192 164.17 62.2507 163.891 62.6697V62.6697C163.814 62.7852 163.708 62.8787 163.584 62.9408L163.229 63.1183C163.155 63.1554 163.073 63.1748 162.99 63.1748V63.1748C162.696 63.1748 162.468 62.9345 162.412 62.6459C162.311 62.1227 162.032 61.7861 161.478 61.4133C161.274 61.2763 161.143 61.052 161.143 60.8067V60.8067C161.143 60.4658 161.39 60.1749 161.726 60.1189L162.399 60.0067C162.813 59.9378 163.116 59.5799 163.116 59.1607V59.1607C163.116 58.9913 163.066 58.8258 162.972 58.6849L162.739 58.335C162.554 58.0583 162.31 57.826 162.025 57.6548L161.389 57.2733C161.02 57.0514 160.58 56.9753 160.157 57.0599L159.665 57.1585C159.359 57.2196 159.11 57.4395 159.012 57.7348L158.978 57.8363C158.895 58.0858 158.96 58.361 159.146 58.547L159.304 58.7055C159.421 58.8222 159.45 59.0006 159.376 59.1483V59.1483C159.269 59.362 158.99 59.4291 158.766 59.347C158.463 59.2361 158.093 59.1773 157.699 59.1621C157.146 59.1406 156.688 58.6393 156.823 58.1029V58.1029C156.853 57.9793 156.853 57.8501 156.823 57.7266L156.798 57.6293C156.652 57.0443 156.087 56.6645 155.49 56.7498L154.916 56.8319C154.497 56.8916 154.143 57.1703 153.986 57.5628V57.5628C153.758 58.1334 154.005 58.7836 154.555 59.0585L154.698 59.1303C154.829 59.1955 154.94 59.2935 155.02 59.4147L155.029 59.4274C155.307 59.8439 155.187 60.3466 154.875 60.7383V60.7383C154.692 60.968 154.388 61.2022 154.094 61.2022H153.785C153.459 61.2022 153.161 61.0181 153.015 60.7265V60.7265C152.956 60.607 152.925 60.4752 152.925 60.3416V60.2284C152.925 59.8067 152.726 59.4096 152.389 59.1565L152.337 59.1174C151.891 58.7833 151.295 58.7296 150.797 58.9786L150.658 59.048Z" fill="#3682D2"/>
<path d="M150.658 59.048C150.419 59.1675 150.211 59.341 150.051 59.5548L149.721 59.9939C149.453 60.3515 149.308 60.7863 149.308 61.2333V61.6751C149.308 62.3633 149.777 62.9631 150.444 63.13L150.47 63.1364C150.572 63.1619 150.676 63.1748 150.781 63.1748H151.205C151.984 63.1748 152.445 64.0158 152.452 64.7939V64.7939C152.458 65.3548 152.16 65.9136 151.616 66.0497L151.42 66.0986C151.328 66.1218 151.233 66.1335 151.137 66.1335H150.984C150.572 66.1335 150.207 66.3969 150.077 66.7874V66.7874C150.005 67.002 150.012 67.235 150.096 67.445L150.365 68.1177C150.526 68.5206 150.88 68.8148 151.305 68.8999L151.716 68.9821C152.042 69.0472 152.37 68.8866 152.518 68.59V68.59C152.569 68.4879 152.596 68.3754 152.596 68.2612V68.0589C152.596 67.7218 152.869 67.4485 153.206 67.4485V67.4485C153.437 67.4485 153.642 67.5817 153.763 67.7781C153.879 67.9671 153.998 68.1099 154.148 68.2138C154.515 68.4671 154.897 68.7797 154.897 69.225V69.3096C154.897 69.5794 154.745 69.826 154.503 69.9466V69.9466C154.335 70.0311 154.206 70.1792 154.146 70.3584L154.089 70.5308C153.977 70.8677 154.026 71.2376 154.223 71.5331L154.278 71.6156C154.465 71.8958 154.749 72.0963 155.076 72.178L155.744 72.3449C155.836 72.3681 155.932 72.3798 156.027 72.3798H156.159C156.583 72.3798 156.96 72.1081 157.094 71.7054V71.7054C157.162 71.503 157.162 71.2841 157.094 71.0817L156.891 70.4728C156.877 70.4294 156.87 70.384 156.87 70.3382V70.3382C156.87 70.0483 157.153 69.85 157.438 69.9012C157.513 69.9146 157.583 69.9238 157.649 69.9288C158.068 69.9607 158.513 70.2228 158.513 70.6427V70.736V71.7223V71.7223C158.513 72.2958 158.918 72.7895 159.48 72.902L159.577 72.9213C159.946 72.9951 160.329 72.9082 160.63 72.6823L161.041 72.3747C161.312 72.1709 161.472 71.8512 161.472 71.5116V71.5116C161.472 71.2255 161.358 70.9511 161.156 70.7488L160.923 70.5154C160.851 70.4438 160.768 70.3842 160.678 70.3389L160.544 70.2718C160.307 70.1534 160.157 69.9112 160.157 69.6463V69.6108C160.157 69.307 160.384 69.07 160.646 68.9156V68.9156C161.048 68.6783 161.555 68.4145 161.928 68.6947L162.129 68.8455C162.337 69.0009 162.458 69.2446 162.458 69.5035V70.0009C162.458 70.2682 162.521 70.5317 162.64 70.7707L162.676 70.842C162.946 71.3815 163.497 71.7223 164.1 71.7223V71.7223C164.522 71.7223 164.927 71.5545 165.226 71.2559L165.76 70.7221C165.966 70.5161 166.112 70.258 166.183 69.9753L166.208 69.8737C166.329 69.3889 166.187 68.8761 165.834 68.5227V68.5227C165.567 68.2559 165.205 68.106 164.828 68.106H164.657C164.295 68.106 163.941 67.9988 163.64 67.798L163.116 67.4485L163.096 67.4386C162.731 67.2563 162.551 66.9028 162.613 66.5001V66.5001C162.706 65.9053 163.167 65.1473 163.768 65.1473H164.267C164.376 65.1473 164.483 65.1648 164.586 65.1991V65.1991C165.063 65.358 165.584 65.1422 165.809 64.6927L165.834 64.6419C165.986 64.3392 165.986 63.9829 165.834 63.6801L165.49 62.9925C165.442 62.8955 165.378 62.8069 165.301 62.7302L165.119 62.5481C164.763 62.192 164.17 62.2507 163.891 62.6697V62.6697C163.814 62.7852 163.708 62.8787 163.584 62.9408L163.229 63.1183C163.155 63.1554 163.073 63.1748 162.99 63.1748V63.1748C162.696 63.1748 162.468 62.9345 162.412 62.6459C162.311 62.1227 162.032 61.7861 161.478 61.4133C161.274 61.2763 161.143 61.052 161.143 60.8067V60.8067C161.143 60.4658 161.39 60.1749 161.726 60.1189L162.399 60.0067C162.813 59.9378 163.116 59.5799 163.116 59.1607V59.1607C163.116 58.9913 163.066 58.8258 162.972 58.6849L162.739 58.335C162.554 58.0583 162.31 57.826 162.025 57.6548L161.389 57.2733C161.02 57.0514 160.58 56.9753 160.157 57.0599L159.665 57.1585C159.359 57.2196 159.11 57.4395 159.012 57.7348L158.978 57.8363C158.895 58.0858 158.96 58.361 159.146 58.547L159.304 58.7055C159.421 58.8222 159.45 59.0006 159.376 59.1483V59.1483C159.269 59.362 158.99 59.4291 158.766 59.347C158.463 59.2361 158.093 59.1773 157.699 59.1621C157.146 59.1406 156.688 58.6393 156.823 58.1029V58.1029C156.853 57.9793 156.853 57.8501 156.823 57.7266L156.798 57.6293C156.652 57.0443 156.087 56.6645 155.49 56.7498L154.916 56.8319C154.497 56.8916 154.143 57.1703 153.986 57.5628V57.5628C153.758 58.1334 154.005 58.7836 154.555 59.0585L154.698 59.1303C154.829 59.1955 154.94 59.2935 155.02 59.4147L155.029 59.4274C155.307 59.8439 155.187 60.3466 154.875 60.7383V60.7383C154.692 60.968 154.388 61.2022 154.094 61.2022H153.785C153.459 61.2022 153.161 61.0181 153.015 60.7265V60.7265C152.956 60.607 152.925 60.4752 152.925 60.3416V60.2284C152.925 59.8067 152.726 59.4096 152.389 59.1565L152.337 59.1174C151.891 58.7833 151.295 58.7296 150.797 58.9786L150.658 59.048Z" stroke="#4978D3" stroke-width="0.5" stroke-linecap="round"/>
</g>
<ellipse cx="159.713" cy="64.5456" rx="1.54594" ry="1.77855" transform="rotate(10.3972 159.713 64.5456)" fill="#265895"/>
<ellipse cx="155.886" cy="66.0301" rx="0.986254" ry="1.315" transform="rotate(-16.4363 155.886 66.0301)" fill="#265895"/>
<path d="M157.198 62.5172C157.198 62.8804 156.904 63.1747 156.541 63.1747C156.177 63.1747 155.883 62.8804 155.883 62.5172C155.883 62.1541 156.177 61.8597 156.541 61.8597C156.904 61.8597 157.198 62.1541 157.198 62.5172Z" fill="#265895"/>
<g filter="url(#filter2_d_71_82)">
<path d="M46.7723 34.7205C46.5333 34.84 46.3254 35.0135 46.165 35.2273L45.8357 35.6664C45.5676 36.024 45.4226 36.4588 45.4226 36.9058V37.3476C45.4226 38.0358 45.8909 38.6356 46.5585 38.8025L46.5843 38.8089C46.6861 38.8344 46.7907 38.8472 46.8957 38.8472H47.3197C48.0978 38.8472 48.5588 39.6883 48.5667 40.4664V40.4664C48.5724 41.0273 48.2746 41.5861 47.7304 41.7222L47.5347 41.7711C47.442 41.7943 47.3468 41.806 47.2512 41.806H47.0981C46.6865 41.806 46.3211 42.0694 46.1909 42.4599V42.4599C46.1194 42.6745 46.1262 42.9075 46.2102 43.1175L46.4793 43.7902C46.6404 44.1931 46.9942 44.4873 47.4197 44.5724L47.8307 44.6546C48.1558 44.7197 48.4842 44.559 48.6325 44.2625V44.2625C48.6835 44.1604 48.7101 44.0478 48.7101 43.9337V43.7314C48.7101 43.3943 48.9834 43.121 49.3205 43.121V43.121C49.551 43.121 49.7563 43.2542 49.877 43.4505C49.9932 43.6396 50.1125 43.7824 50.2626 43.8862C50.6288 44.1396 51.0114 44.4522 51.0114 44.8975V44.9821C51.0114 45.2519 50.859 45.4985 50.6177 45.6191V45.6191C50.4488 45.7036 50.3203 45.8517 50.2606 46.0309L50.2031 46.2033C50.0908 46.5402 50.1404 46.9101 50.3374 47.2056L50.3923 47.2881C50.5791 47.5683 50.8636 47.7688 51.1903 47.8504L51.858 48.0174C51.9508 48.0406 52.046 48.0523 52.1415 48.0523H52.273C52.6975 48.0523 53.0744 47.7806 53.2087 47.3779V47.3779C53.2762 47.1755 53.2762 46.9566 53.2087 46.7541L53.0057 46.1453C52.9913 46.1019 52.9839 46.0564 52.9839 46.0107V46.0107C52.9839 45.7208 53.2668 45.5225 53.5522 45.5737C53.6269 45.5871 53.697 45.5962 53.7637 45.6013C54.1823 45.6332 54.6276 45.8953 54.6276 46.3151V46.4085V47.3948V47.3948C54.6276 47.9682 55.0324 48.462 55.5947 48.5744L55.6913 48.5938C56.0604 48.6676 56.4435 48.5807 56.7447 48.3548L57.1549 48.0472C57.4265 47.8434 57.5864 47.5237 57.5864 47.1841V47.1841C57.5864 46.898 57.4727 46.6236 57.2704 46.4213L57.037 46.1879C56.9654 46.1163 56.8827 46.0567 56.7922 46.0114L56.658 45.9443C56.4211 45.8259 56.2714 45.5837 56.2714 45.3188V45.2833C56.2714 44.9795 56.4987 44.7425 56.7604 44.5881V44.5881C57.1625 44.3508 57.669 44.087 58.0425 44.3672L58.2437 44.518C58.4508 44.6734 58.5727 44.9171 58.5727 45.176V45.6734C58.5727 45.9406 58.6349 46.2042 58.7544 46.4432L58.79 46.5145C59.0598 47.054 59.6112 47.3948 60.2143 47.3948V47.3948C60.6366 47.3948 61.0417 47.227 61.3403 46.9284L61.8741 46.3946C62.0801 46.1886 62.2262 45.9305 62.2969 45.6478L62.3223 45.5462C62.4435 45.0614 62.3015 44.5486 61.9481 44.1952V44.1952C61.6813 43.9284 61.3194 43.7785 60.9421 43.7785H60.7717C60.4096 43.7785 60.0556 43.6713 59.7544 43.4705L59.2302 43.121L59.2102 43.111C58.8457 42.9288 58.6652 42.5752 58.7276 42.1726V42.1726C58.8198 41.5778 59.2808 40.8197 59.8827 40.8197H60.3813C60.4898 40.8197 60.5977 40.8372 60.7006 40.8716V40.8716C61.1773 41.0305 61.6983 40.8147 61.9231 40.3652L61.9485 40.3144C62.0998 40.0117 62.0998 39.6553 61.9485 39.3526L61.6047 38.665C61.5561 38.5679 61.4923 38.4794 61.4156 38.4027L61.2335 38.2205C60.8774 37.8645 60.2845 37.9232 60.0052 38.3422V38.3422C59.9282 38.4577 59.8223 38.5512 59.6981 38.6133L59.343 38.7908C59.2688 38.8279 59.187 38.8472 59.104 38.8472V38.8472C58.8101 38.8472 58.5825 38.607 58.5265 38.3184C58.425 37.7952 58.1462 37.4586 57.5922 37.0857C57.3887 36.9488 57.2576 36.7245 57.2576 36.4792V36.4792C57.2576 36.1383 57.5041 35.8474 57.8403 35.7914L58.5135 35.6792C58.927 35.6102 59.2302 35.2524 59.2302 34.8332V34.8332C59.2302 34.6638 59.18 34.4983 59.0861 34.3574L58.8529 34.0075C58.6684 33.7308 58.4247 33.4985 58.1395 33.3273L57.5036 32.9458C57.1338 32.7239 56.6946 32.6478 56.2717 32.7324L55.7788 32.831C55.4735 32.892 55.2244 33.112 55.1259 33.4073L55.0921 33.5087C55.0089 33.7583 55.0739 34.0335 55.2599 34.2195L55.4184 34.378C55.5351 34.4947 55.5641 34.6731 55.4903 34.8208V34.8208C55.3834 35.0345 55.1046 35.1016 54.8802 35.0194C54.5775 34.9086 54.2074 34.8498 53.8132 34.8345C53.2606 34.8131 52.8027 34.3118 52.9369 33.7753V33.7753C52.9677 33.6518 52.9677 33.5226 52.9369 33.3991L52.9125 33.3018C52.7663 32.7168 52.2015 32.337 51.6045 32.4223L51.0302 32.5044C50.6117 32.5641 50.2571 32.8428 50.1002 33.2353V33.2353C49.8719 33.8058 50.1192 34.4561 50.6688 34.731L50.8126 34.8028C50.9428 34.868 51.0539 34.966 51.1347 35.0872L51.1432 35.0999C51.4208 35.5164 51.3013 36.0191 50.9895 36.4108V36.4108C50.8066 36.6405 50.5019 36.8747 50.2082 36.8747H49.8996C49.5735 36.8747 49.2755 36.6905 49.1297 36.399V36.399C49.07 36.2794 49.0389 36.1477 49.0389 36.0141V35.9009C49.0389 35.4792 48.8403 35.0821 48.5029 34.829L48.4508 34.7899C48.0053 34.4558 47.4092 34.402 46.9111 34.6511L46.7723 34.7205Z" fill="#3682D2"/>
<path d="M46.7723 34.7205C46.5333 34.84 46.3254 35.0135 46.165 35.2273L45.8357 35.6664C45.5676 36.024 45.4226 36.4588 45.4226 36.9058V37.3476C45.4226 38.0358 45.8909 38.6356 46.5585 38.8025L46.5843 38.8089C46.6861 38.8344 46.7907 38.8472 46.8957 38.8472H47.3197C48.0978 38.8472 48.5588 39.6883 48.5667 40.4664V40.4664C48.5724 41.0273 48.2746 41.5861 47.7304 41.7222L47.5347 41.7711C47.442 41.7943 47.3468 41.806 47.2512 41.806H47.0981C46.6865 41.806 46.3211 42.0694 46.1909 42.4599V42.4599C46.1194 42.6745 46.1262 42.9075 46.2102 43.1175L46.4793 43.7902C46.6404 44.1931 46.9942 44.4873 47.4197 44.5724L47.8307 44.6546C48.1558 44.7197 48.4842 44.559 48.6325 44.2625V44.2625C48.6835 44.1604 48.7101 44.0478 48.7101 43.9337V43.7314C48.7101 43.3943 48.9834 43.121 49.3205 43.121V43.121C49.551 43.121 49.7563 43.2542 49.877 43.4505C49.9932 43.6396 50.1125 43.7824 50.2626 43.8862C50.6288 44.1396 51.0114 44.4522 51.0114 44.8975V44.9821C51.0114 45.2519 50.859 45.4985 50.6177 45.6191V45.6191C50.4488 45.7036 50.3203 45.8517 50.2606 46.0309L50.2031 46.2033C50.0908 46.5402 50.1404 46.9101 50.3374 47.2056L50.3923 47.2881C50.5791 47.5683 50.8636 47.7688 51.1903 47.8504L51.858 48.0174C51.9508 48.0406 52.046 48.0523 52.1415 48.0523H52.273C52.6975 48.0523 53.0744 47.7806 53.2087 47.3779V47.3779C53.2762 47.1755 53.2762 46.9566 53.2087 46.7541L53.0057 46.1453C52.9913 46.1019 52.9839 46.0564 52.9839 46.0107V46.0107C52.9839 45.7208 53.2668 45.5225 53.5522 45.5737C53.6269 45.5871 53.697 45.5962 53.7637 45.6013C54.1823 45.6332 54.6276 45.8953 54.6276 46.3151V46.4085V47.3948V47.3948C54.6276 47.9682 55.0324 48.462 55.5947 48.5744L55.6913 48.5938C56.0604 48.6676 56.4435 48.5807 56.7447 48.3548L57.1549 48.0472C57.4265 47.8434 57.5864 47.5237 57.5864 47.1841V47.1841C57.5864 46.898 57.4727 46.6236 57.2704 46.4213L57.037 46.1879C56.9654 46.1163 56.8827 46.0567 56.7922 46.0114L56.658 45.9443C56.4211 45.8259 56.2714 45.5837 56.2714 45.3188V45.2833C56.2714 44.9795 56.4987 44.7425 56.7604 44.5881V44.5881C57.1625 44.3508 57.669 44.087 58.0425 44.3672L58.2437 44.518C58.4508 44.6734 58.5727 44.9171 58.5727 45.176V45.6734C58.5727 45.9406 58.6349 46.2042 58.7544 46.4432L58.79 46.5145C59.0598 47.054 59.6112 47.3948 60.2143 47.3948V47.3948C60.6366 47.3948 61.0417 47.227 61.3403 46.9284L61.8741 46.3946C62.0801 46.1886 62.2262 45.9305 62.2969 45.6478L62.3223 45.5462C62.4435 45.0614 62.3015 44.5486 61.9481 44.1952V44.1952C61.6813 43.9284 61.3194 43.7785 60.9421 43.7785H60.7717C60.4096 43.7785 60.0556 43.6713 59.7544 43.4705L59.2302 43.121L59.2102 43.111C58.8457 42.9288 58.6652 42.5752 58.7276 42.1726V42.1726C58.8198 41.5778 59.2808 40.8197 59.8827 40.8197H60.3813C60.4898 40.8197 60.5977 40.8372 60.7006 40.8716V40.8716C61.1773 41.0305 61.6983 40.8147 61.9231 40.3652L61.9485 40.3144C62.0998 40.0117 62.0998 39.6553 61.9485 39.3526L61.6047 38.665C61.5561 38.5679 61.4923 38.4794 61.4156 38.4027L61.2335 38.2205C60.8774 37.8645 60.2845 37.9232 60.0052 38.3422V38.3422C59.9282 38.4577 59.8223 38.5512 59.6981 38.6133L59.343 38.7908C59.2688 38.8279 59.187 38.8472 59.104 38.8472V38.8472C58.8101 38.8472 58.5825 38.607 58.5265 38.3184C58.425 37.7952 58.1462 37.4586 57.5922 37.0857C57.3887 36.9488 57.2576 36.7245 57.2576 36.4792V36.4792C57.2576 36.1383 57.5041 35.8474 57.8403 35.7914L58.5135 35.6792C58.927 35.6102 59.2302 35.2524 59.2302 34.8332V34.8332C59.2302 34.6638 59.18 34.4983 59.0861 34.3574L58.8529 34.0075C58.6684 33.7308 58.4247 33.4985 58.1395 33.3273L57.5036 32.9458C57.1338 32.7239 56.6946 32.6478 56.2717 32.7324L55.7788 32.831C55.4735 32.892 55.2244 33.112 55.1259 33.4073L55.0921 33.5087C55.0089 33.7583 55.0739 34.0335 55.2599 34.2195L55.4184 34.378C55.5351 34.4947 55.5641 34.6731 55.4903 34.8208V34.8208C55.3834 35.0345 55.1046 35.1016 54.8802 35.0194C54.5775 34.9086 54.2074 34.8498 53.8132 34.8345C53.2606 34.8131 52.8027 34.3118 52.9369 33.7753V33.7753C52.9677 33.6518 52.9677 33.5226 52.9369 33.3991L52.9125 33.3018C52.7663 32.7168 52.2015 32.337 51.6045 32.4223L51.0302 32.5044C50.6117 32.5641 50.2571 32.8428 50.1002 33.2353V33.2353C49.8719 33.8058 50.1192 34.4561 50.6688 34.731L50.8126 34.8028C50.9428 34.868 51.0539 34.966 51.1347 35.0872L51.1432 35.0999C51.4208 35.5164 51.3013 36.0191 50.9895 36.4108V36.4108C50.8066 36.6405 50.5019 36.8747 50.2082 36.8747H49.8996C49.5735 36.8747 49.2755 36.6905 49.1297 36.399V36.399C49.07 36.2794 49.0389 36.1477 49.0389 36.0141V35.9009C49.0389 35.4792 48.8403 35.0821 48.5029 34.829L48.4508 34.7899C48.0053 34.4558 47.4092 34.402 46.9111 34.6511L46.7723 34.7205Z" stroke="#4978D3" stroke-width="0.5" stroke-linecap="round"/>
</g>
<ellipse cx="55.8273" cy="40.218" rx="1.54594" ry="1.77855" transform="rotate(10.3972 55.8273 40.218)" fill="#265895"/>
<ellipse cx="52.0006" cy="41.7025" rx="0.986254" ry="1.315" transform="rotate(-16.4363 52.0006 41.7025)" fill="#265895"/>
<path d="M53.3128 38.1897C53.3128 38.5528 53.0184 38.8472 52.6553 38.8472C52.2922 38.8472 51.9978 38.5528 51.9978 38.1897C51.9978 37.8266 52.2922 37.5322 52.6553 37.5322C53.0184 37.5322 53.3128 37.8266 53.3128 38.1897Z" fill="#265895"/>
<g filter="url(#filter3_d_71_82)">
<path d="M68.4698 100.471C68.2308 100.59 68.0229 100.764 67.8626 100.977L67.5332 101.417C67.2651 101.774 67.1201 102.209 67.1201 102.656V103.098C67.1201 103.786 67.5884 104.386 68.256 104.553L68.2818 104.559C68.3836 104.585 68.4882 104.597 68.5932 104.597H69.0172C69.7954 104.597 70.2563 105.438 70.2642 106.217V106.217C70.2699 106.777 69.9721 107.336 69.428 107.472L69.2322 107.521C69.1395 107.544 69.0443 107.556 68.9487 107.556H68.7957C68.384 107.556 68.0186 107.82 67.8884 108.21V108.21C67.8169 108.425 67.8237 108.658 67.9077 108.868L68.1768 109.54C68.338 109.943 68.6917 110.237 69.1172 110.323L69.5282 110.405C69.8533 110.47 70.1817 110.309 70.33 110.013V110.013C70.3811 109.911 70.4076 109.798 70.4076 109.684V109.482C70.4076 109.144 70.6809 108.871 71.018 108.871V108.871C71.2485 108.871 71.4538 109.004 71.5745 109.201C71.6907 109.39 71.81 109.533 71.9602 109.636C72.3264 109.89 72.7089 110.202 72.7089 110.648V110.732C72.7089 111.002 72.5565 111.249 72.3152 111.369V111.369C72.1463 111.454 72.0178 111.602 71.9581 111.781L71.9006 111.953C71.7883 112.29 71.8379 112.66 72.0349 112.956L72.0899 113.038C72.2766 113.318 72.5611 113.519 72.8878 113.601L73.5556 113.768C73.6483 113.791 73.7435 113.802 73.839 113.802H73.9705C74.3951 113.802 74.7719 113.531 74.9062 113.128V113.128C74.9737 112.926 74.9737 112.707 74.9062 112.504L74.7032 111.895C74.6888 111.852 74.6814 111.807 74.6814 111.761V111.761C74.6814 111.471 74.9643 111.273 75.2497 111.324C75.3244 111.337 75.3945 111.346 75.4612 111.351C75.8798 111.383 76.3251 111.645 76.3251 112.065V112.159V113.145V113.145C76.3251 113.718 76.7299 114.212 77.2923 114.325L77.3888 114.344C77.7579 114.418 78.141 114.331 78.4422 114.105L78.8524 113.797C79.124 113.594 79.2839 113.274 79.2839 112.934V112.934C79.2839 112.648 79.1703 112.374 78.9679 112.171L78.7345 111.938C78.6629 111.866 78.5802 111.807 78.4897 111.762L78.3555 111.694C78.1186 111.576 77.9689 111.334 77.9689 111.069V111.033C77.9689 110.73 78.1963 110.493 78.4579 110.338V110.338C78.86 110.101 79.3665 109.837 79.74 110.117L79.9412 110.268C80.1483 110.424 80.2702 110.667 80.2702 110.926V111.424C80.2702 111.691 80.3324 111.954 80.4519 112.193L80.4875 112.265C80.7573 112.804 81.3087 113.145 81.9118 113.145V113.145C82.3342 113.145 82.7392 112.977 83.0378 112.679L83.5716 112.145C83.7776 111.939 83.9238 111.681 83.9944 111.398L84.0198 111.296C84.141 110.812 83.999 110.299 83.6456 109.945V109.945C83.3788 109.679 83.017 109.529 82.6396 109.529H82.4692C82.1071 109.529 81.7532 109.421 81.4519 109.221L80.9277 108.871L80.9077 108.861C80.5432 108.679 80.3627 108.325 80.4251 107.923V107.923C80.5173 107.328 80.9784 106.57 81.5803 106.57H82.0788C82.1873 106.57 82.2952 106.587 82.3981 106.622V106.622C82.8748 106.781 83.3958 106.565 83.6206 106.115L83.646 106.065C83.7973 105.762 83.7973 105.405 83.646 105.103L83.3022 104.415C83.2537 104.318 83.1898 104.23 83.1131 104.153L82.931 103.971C82.5749 103.615 81.9821 103.673 81.7027 104.092V104.092C81.6257 104.208 81.5198 104.301 81.3956 104.363L81.0405 104.541C80.9663 104.578 80.8845 104.597 80.8015 104.597V104.597C80.5076 104.597 80.28 104.357 80.224 104.069C80.1225 103.545 79.8437 103.209 79.2897 102.836C79.0862 102.699 78.9552 102.475 78.9552 102.229V102.229C78.9552 101.888 79.2016 101.598 79.5378 101.542L80.211 101.429C80.6245 101.36 80.9277 101.003 80.9277 100.583V100.583C80.9277 100.414 80.8775 100.248 80.7836 100.108L80.5504 99.7577C80.3659 99.4809 80.1222 99.2486 79.837 99.0775L79.2011 98.696C78.8313 98.4741 78.3921 98.398 77.9692 98.4826L77.4763 98.5811C77.171 98.6422 76.9219 98.8621 76.8234 99.1575L76.7896 99.2589C76.7065 99.5085 76.7714 99.7836 76.9574 99.9697L77.1159 100.128C77.2327 100.245 77.2616 100.423 77.1878 100.571V100.571C77.0809 100.785 76.8021 100.852 76.5777 100.77C76.275 100.659 75.9049 100.6 75.5107 100.585C74.9581 100.563 74.5002 100.062 74.6344 99.5255V99.5255C74.6652 99.402 74.6652 99.2728 74.6344 99.1493L74.61 99.052C74.4638 98.467 73.899 98.0872 73.302 98.1725L72.7277 98.2545C72.3093 98.3143 71.9546 98.593 71.7977 98.9854V98.9854C71.5694 99.556 71.8167 100.206 72.3663 100.481L72.5101 100.553C72.6404 100.618 72.7514 100.716 72.8322 100.837L72.8407 100.85C73.1184 101.267 72.9988 101.769 72.687 102.161V102.161C72.5041 102.391 72.1994 102.625 71.9057 102.625H71.5971C71.2711 102.625 70.973 102.441 70.8272 102.149V102.149C70.7675 102.03 70.7364 101.898 70.7364 101.764V101.651C70.7364 101.229 70.5378 100.832 70.2004 100.579L70.1483 100.54C69.7028 100.206 69.1067 100.152 68.6087 100.401L68.4698 100.471Z" fill="#3682D2"/>
<path d="M68.4698 100.471C68.2308 100.59 68.0229 100.764 67.8626 100.977L67.5332 101.417C67.2651 101.774 67.1201 102.209 67.1201 102.656V103.098C67.1201 103.786 67.5884 104.386 68.256 104.553L68.2818 104.559C68.3836 104.585 68.4882 104.597 68.5932 104.597H69.0172C69.7954 104.597 70.2563 105.438 70.2642 106.217V106.217C70.2699 106.777 69.9721 107.336 69.428 107.472L69.2322 107.521C69.1395 107.544 69.0443 107.556 68.9487 107.556H68.7957C68.384 107.556 68.0186 107.82 67.8884 108.21V108.21C67.8169 108.425 67.8237 108.658 67.9077 108.868L68.1768 109.54C68.338 109.943 68.6917 110.237 69.1172 110.323L69.5282 110.405C69.8533 110.47 70.1817 110.309 70.33 110.013V110.013C70.3811 109.911 70.4076 109.798 70.4076 109.684V109.482C70.4076 109.144 70.6809 108.871 71.018 108.871V108.871C71.2485 108.871 71.4538 109.004 71.5745 109.201C71.6907 109.39 71.81 109.533 71.9602 109.636C72.3264 109.89 72.7089 110.202 72.7089 110.648V110.732C72.7089 111.002 72.5565 111.249 72.3152 111.369V111.369C72.1463 111.454 72.0178 111.602 71.9581 111.781L71.9006 111.953C71.7883 112.29 71.8379 112.66 72.0349 112.956L72.0899 113.038C72.2766 113.318 72.5611 113.519 72.8878 113.601L73.5556 113.768C73.6483 113.791 73.7435 113.802 73.839 113.802H73.9705C74.3951 113.802 74.7719 113.531 74.9062 113.128V113.128C74.9737 112.926 74.9737 112.707 74.9062 112.504L74.7032 111.895C74.6888 111.852 74.6814 111.807 74.6814 111.761V111.761C74.6814 111.471 74.9643 111.273 75.2497 111.324C75.3244 111.337 75.3945 111.346 75.4612 111.351C75.8798 111.383 76.3251 111.645 76.3251 112.065V112.159V113.145V113.145C76.3251 113.718 76.7299 114.212 77.2923 114.325L77.3888 114.344C77.7579 114.418 78.141 114.331 78.4422 114.105L78.8524 113.797C79.124 113.594 79.2839 113.274 79.2839 112.934V112.934C79.2839 112.648 79.1703 112.374 78.9679 112.171L78.7345 111.938C78.6629 111.866 78.5802 111.807 78.4897 111.762L78.3555 111.694C78.1186 111.576 77.9689 111.334 77.9689 111.069V111.033C77.9689 110.73 78.1963 110.493 78.4579 110.338V110.338C78.86 110.101 79.3665 109.837 79.74 110.117L79.9412 110.268C80.1483 110.424 80.2702 110.667 80.2702 110.926V111.424C80.2702 111.691 80.3324 111.954 80.4519 112.193L80.4875 112.265C80.7573 112.804 81.3087 113.145 81.9118 113.145V113.145C82.3342 113.145 82.7392 112.977 83.0378 112.679L83.5716 112.145C83.7776 111.939 83.9238 111.681 83.9944 111.398L84.0198 111.296C84.141 110.812 83.999 110.299 83.6456 109.945V109.945C83.3788 109.679 83.017 109.529 82.6396 109.529H82.4692C82.1071 109.529 81.7532 109.421 81.4519 109.221L80.9277 108.871L80.9077 108.861C80.5432 108.679 80.3627 108.325 80.4251 107.923V107.923C80.5173 107.328 80.9784 106.57 81.5803 106.57H82.0788C82.1873 106.57 82.2952 106.587 82.3981 106.622V106.622C82.8748 106.781 83.3958 106.565 83.6206 106.115L83.646 106.065C83.7973 105.762 83.7973 105.405 83.646 105.103L83.3022 104.415C83.2537 104.318 83.1898 104.23 83.1131 104.153L82.931 103.971C82.5749 103.615 81.9821 103.673 81.7027 104.092V104.092C81.6257 104.208 81.5198 104.301 81.3956 104.363L81.0405 104.541C80.9663 104.578 80.8845 104.597 80.8015 104.597V104.597C80.5076 104.597 80.28 104.357 80.224 104.069C80.1225 103.545 79.8437 103.209 79.2897 102.836C79.0862 102.699 78.9552 102.475 78.9552 102.229V102.229C78.9552 101.888 79.2016 101.598 79.5378 101.542L80.211 101.429C80.6245 101.36 80.9277 101.003 80.9277 100.583V100.583C80.9277 100.414 80.8775 100.248 80.7836 100.108L80.5504 99.7577C80.3659 99.4809 80.1222 99.2486 79.837 99.0775L79.2011 98.696C78.8313 98.4741 78.3921 98.398 77.9692 98.4826L77.4763 98.5811C77.171 98.6422 76.9219 98.8621 76.8234 99.1575L76.7896 99.2589C76.7065 99.5085 76.7714 99.7836 76.9574 99.9697L77.1159 100.128C77.2327 100.245 77.2616 100.423 77.1878 100.571V100.571C77.0809 100.785 76.8021 100.852 76.5777 100.77C76.275 100.659 75.9049 100.6 75.5107 100.585C74.9581 100.563 74.5002 100.062 74.6344 99.5255V99.5255C74.6652 99.402 74.6652 99.2728 74.6344 99.1493L74.61 99.052C74.4638 98.467 73.899 98.0872 73.302 98.1725L72.7277 98.2545C72.3093 98.3143 71.9546 98.593 71.7977 98.9854V98.9854C71.5694 99.556 71.8167 100.206 72.3663 100.481L72.5101 100.553C72.6404 100.618 72.7514 100.716 72.8322 100.837L72.8407 100.85C73.1184 101.267 72.9988 101.769 72.687 102.161V102.161C72.5041 102.391 72.1994 102.625 71.9057 102.625H71.5971C71.2711 102.625 70.973 102.441 70.8272 102.149V102.149C70.7675 102.03 70.7364 101.898 70.7364 101.764V101.651C70.7364 101.229 70.5378 100.832 70.2004 100.579L70.1483 100.54C69.7028 100.206 69.1067 100.152 68.6087 100.401L68.4698 100.471Z" stroke="#4978D3" stroke-width="0.5" stroke-linecap="round"/>
</g>
<ellipse cx="77.5245" cy="105.968" rx="1.54594" ry="1.77855" transform="rotate(10.3972 77.5245 105.968)" fill="#265895"/>
<ellipse cx="73.6984" cy="107.453" rx="0.986254" ry="1.315" transform="rotate(-16.4363 73.6984 107.453)" fill="#265895"/>
<path d="M75.0101 103.94C75.0101 104.303 74.7157 104.597 74.3526 104.597C73.9894 104.597 73.6951 104.303 73.6951 103.94C73.6951 103.577 73.9894 103.282 74.3526 103.282C74.7157 103.282 75.0101 103.577 75.0101 103.94Z" fill="#265895"/>
</g>
<defs>
<filter id="filter0_d_71_82" x="0" y="0.711914" width="193.399" height="131.939" filterUnits="userSpaceOnUse" color-interpolation-filters="sRGB">
<feFlood flood-opacity="0" result="BackgroundImageFix"/>
<feColorMatrix in="SourceAlpha" type="matrix" values="0 0 0 0 0 0 0 0 0 0 0 0 0 0 0 0 0 0 127 0" result="hardAlpha"/>
<feOffset dy="4"/>
<feGaussianBlur stdDeviation="2"/>
<feComposite in2="hardAlpha" operator="out"/>
<feColorMatrix type="matrix" values="0 0 0 0 0 0 0 0 0 0 0 0 0 0 0 0 0 0 0.25 0"/>
<feBlend mode="normal" in2="BackgroundImageFix" result="effect1_dropShadow_71_82"/>
<feBlend mode="normal" in="SourceGraphic" in2="effect1_dropShadow_71_82" result="shape"/>
</filter>
<filter id="filter1_d_71_82" x="145.058" y="56.4879" width="25.4421" height="24.7091" filterUnits="userSpaceOnUse" color-interpolation-filters="sRGB">
<feFlood flood-opacity="0" result="BackgroundImageFix"/>
<feColorMatrix in="SourceAlpha" type="matrix" values="0 0 0 0 0 0 0 0 0 0 0 0 0 0 0 0 0 0 127 0" result="hardAlpha"/>
<feOffset dy="4"/>
<feGaussianBlur stdDeviation="2"/>
<feComposite in2="hardAlpha" operator="out"/>
<feColorMatrix type="matrix" values="0 0 0 0 0 0 0 0 0 0 0 0 0 0 0 0 0 0 0.25 0"/>
<feBlend mode="normal" in2="BackgroundImageFix" result="effect1_dropShadow_71_82"/>
<feBlend mode="normal" in="SourceGraphic" in2="effect1_dropShadow_71_82" result="shape"/>
</filter>
<filter id="filter2_d_71_82" x="41.1726" y="32.1603" width="25.4421" height="24.7091" filterUnits="userSpaceOnUse" color-interpolation-filters="sRGB">
<feFlood flood-opacity="0" result="BackgroundImageFix"/>
<feColorMatrix in="SourceAlpha" type="matrix" values="0 0 0 0 0 0 0 0 0 0 0 0 0 0 0 0 0 0 127 0" result="hardAlpha"/>
<feOffset dy="4"/>
<feGaussianBlur stdDeviation="2"/>
<feComposite in2="hardAlpha" operator="out"/>
<feColorMatrix type="matrix" values="0 0 0 0 0 0 0 0 0 0 0 0 0 0 0 0 0 0 0.25 0"/>
<feBlend mode="normal" in2="BackgroundImageFix" result="effect1_dropShadow_71_82"/>
<feBlend mode="normal" in="SourceGraphic" in2="effect1_dropShadow_71_82" result="shape"/>
</filter>
<filter id="filter3_d_71_82" x="62.8701" y="97.9105" width="25.4421" height="24.7091" filterUnits="userSpaceOnUse" color-interpolation-filters="sRGB">
<feFlood flood-opacity="0" result="BackgroundImageFix"/>
<feColorMatrix in="SourceAlpha" type="matrix" values="0 0 0 0 0 0 0 0 0 0 0 0 0 0 0 0 0 0 127 0" result="hardAlpha"/>
<feOffset dy="4"/>
<feGaussianBlur stdDeviation="2"/>
<feComposite in2="hardAlpha" operator="out"/>
<feColorMatrix type="matrix" values="0 0 0 0 0 0 0 0 0 0 0 0 0 0 0 0 0 0 0.25 0"/>
<feBlend mode="normal" in2="BackgroundImageFix" result="effect1_dropShadow_71_82"/>
<feBlend mode="normal" in="SourceGraphic" in2="effect1_dropShadow_71_82" result="shape"/>
</filter>
</defs>
</svg>
