<svg width="84" height="84" viewBox="0 0 84 84" fill="none" xmlns="http://www.w3.org/2000/svg">
<g filter="url(#filter0_d_30_3)">
<path d="M7.79591 63.9805V71.5461H11.3562V63.9805H7.79591Z" fill="#2D5AAF"/>
<path d="M4.68066 71.5461V75.1064H14.9165V71.5461H11.3562H7.79591H4.68066Z" fill="#2D5AAF"/>
<path d="M7.79591 18.5868V10.1312H9.57605H11.3562V18.5868H7.79591Z" fill="#2D5AAF"/>
<path d="M22.9271 63.9805V71.5461H26.4874V63.9805H22.9271Z" fill="#2D5AAF"/>
<path d="M19.8119 71.5461V75.1064H30.0477V71.5461H26.4874H22.9271H19.8119Z" fill="#2D5AAF"/>
<path d="M22.9271 18.5868V10.1312H24.7073H26.4874V18.5868H22.9271Z" fill="#2D5AAF"/>
<path d="M38.0583 63.9805V71.5461H41.6186V63.9805H38.0583Z" fill="#2D5AAF"/>
<path d="M34.9431 71.5461V75.1064H45.1789V71.5461H41.6186H38.0583H34.9431Z" fill="#2D5AAF"/>
<path d="M38.0583 18.5868V10.1312H39.8385H41.6186V18.5868H38.0583Z" fill="#2D5AAF"/>
<path d="M7.79591 71.5461H4.68066V75.1064H14.9165V71.5461H11.3562M7.79591 71.5461V63.9805H11.3562V71.5461M7.79591 71.5461H11.3562M9.57605 10.1312H7.79591V18.5868H11.3562V10.1312H9.57605ZM9.57605 10.1312V0.340393M22.9271 71.5461H19.8119V75.1064H30.0477V71.5461H26.4874M22.9271 71.5461V63.9805H26.4874V71.5461M22.9271 71.5461H26.4874M24.7073 10.1312H22.9271V18.5868H26.4874V10.1312H24.7073ZM24.7073 10.1312V0.340393M38.0583 71.5461H34.9431V75.1064H45.1789V71.5461H41.6186M38.0583 71.5461V63.9805H41.6186V71.5461M38.0583 71.5461H41.6186M39.8385 10.1312H38.0583V18.5868H41.6186V10.1312H39.8385ZM39.8385 10.1312V0.340393" stroke="#2D5AAF"/>
<path d="M4.68066 19.0319H14.0264V29.2677V34.6082V39.9486V45.289V50.6294V55.9699V63.5355H4.68066V19.0319Z" fill="white"/>
<path d="M19.8119 19.0319H29.1576V29.2677V34.6082V39.9486V45.289V50.6294V55.9699V63.5355H19.8119V19.0319Z" fill="white"/>
<path d="M34.9431 19.0319H44.2888V29.2677V34.6082V39.9486V45.289V50.6294V55.9699V63.5355H34.9431V19.0319Z" fill="white"/>
<path d="M14.0264 55.9699V63.5355H4.68066V19.0319H14.0264V29.2677M14.0264 55.9699H8.24095M14.0264 55.9699V50.6294M14.0264 50.6294H8.24095M14.0264 50.6294V45.289M14.0264 45.289H8.24095M14.0264 45.289V39.9486M14.0264 39.9486H8.24095M14.0264 39.9486V34.6082M14.0264 34.6082V29.2677M14.0264 34.6082H11.1337H8.24095M14.0264 29.2677H8.24095M29.1576 55.9699V63.5355H19.8119V19.0319H29.1576V29.2677M29.1576 55.9699H23.3722M29.1576 55.9699V50.6294M29.1576 50.6294H23.3722M29.1576 50.6294V45.289M29.1576 45.289H23.3722M29.1576 45.289V39.9486M29.1576 39.9486H23.3722M29.1576 39.9486V34.6082M29.1576 34.6082V29.2677M29.1576 34.6082H26.2649H23.3722M29.1576 29.2677H23.3722M44.2888 55.9699V63.5355H34.9431V19.0319H44.2888V29.2677M44.2888 55.9699H38.5034M44.2888 55.9699V50.6294M44.2888 50.6294H38.5034M44.2888 50.6294V45.289M44.2888 45.289H38.5034M44.2888 45.289V39.9486M44.2888 39.9486H38.5034M44.2888 39.9486V34.6082M44.2888 34.6082V29.2677M44.2888 34.6082H41.3961H38.5034M44.2888 29.2677H38.5034" stroke="#6EBEF8"/>
<path d="M63.8706 28.8227H71.8812V31.0032C71.8812 32.1817 72.2975 33.3224 73.0567 34.2239L77.8264 39.8878C78.5855 40.7893 79.0018 41.93 79.0018 43.1085V69.3879C79.0018 71.0194 78.2058 72.5484 76.8691 73.484L75.8427 74.2025C75.0022 74.7908 74.0012 75.1064 72.9753 75.1064H62.634C61.4229 75.1064 60.253 74.6668 59.3415 73.8693L58.9025 73.4852C57.8175 72.5357 57.1951 71.1641 57.1951 69.7223V43.0195C57.1951 41.8952 57.574 40.8037 58.2707 39.9213L62.795 34.1904C63.4917 33.308 63.8706 32.2165 63.8706 31.0922V28.8227Z" fill="#3FA9F5" stroke="#3FA9F5"/>
<path d="M62.6455 22.5922C62.0932 22.5922 61.6455 23.0399 61.6455 23.5922V26.9326C61.6455 27.4849 62.0932 27.9326 62.6455 27.9326H73.1065C73.6588 27.9326 74.1065 27.4849 74.1065 26.9326V23.5922C74.1065 23.0399 73.6588 22.5922 73.1065 22.5922H62.6455Z" fill="white" stroke="#6EBEF8"/>
<path d="M57.1951 44.3989H79.0018V69.1064C79.0018 72.4201 76.3155 75.1064 73.0018 75.1064H63.1951C59.8814 75.1064 57.1951 72.4201 57.1951 69.1064V44.3989Z" fill="#2D5AAF" stroke="#2D5AAF"/>
<path d="M58.085 48.0691C58.085 47.5168 58.5327 47.0691 59.085 47.0691H77.1116C77.6638 47.0691 78.1116 47.5168 78.1116 48.0691V56.3049C78.1116 56.8572 77.6638 57.3049 77.1116 57.3049H59.085C58.5327 57.3049 58.085 56.8572 58.085 56.3049V48.0691Z" fill="white" stroke="white"/>
</g>
<defs>
<filter id="filter0_d_30_3" x="0.180664" y="0.340393" width="83.321" height="83.266" filterUnits="userSpaceOnUse" color-interpolation-filters="sRGB">
<feFlood flood-opacity="0" result="BackgroundImageFix"/>
<feColorMatrix in="SourceAlpha" type="matrix" values="0 0 0 0 0 0 0 0 0 0 0 0 0 0 0 0 0 0 127 0" result="hardAlpha"/>
<feOffset dy="4"/>
<feGaussianBlur stdDeviation="2"/>
<feComposite in2="hardAlpha" operator="out"/>
<feColorMatrix type="matrix" values="0 0 0 0 0 0 0 0 0 0 0 0 0 0 0 0 0 0 0.25 0"/>
<feBlend mode="normal" in2="BackgroundImageFix" result="effect1_dropShadow_30_3"/>
<feBlend mode="normal" in="SourceGraphic" in2="effect1_dropShadow_30_3" result="shape"/>
</filter>
</defs>
</svg>
